<?xml version="1.0" encoding="UTF-8" standalone="no"?>
<!DOCTYPE svg PUBLIC "-//W3C//DTD SVG 1.1//EN"
 "http://www.w3.org/Graphics/SVG/1.1/DTD/svg11.dtd">
<!-- Generated by graphviz version 2.40.1 (0)
 -->
<!-- Title: snakemake_dag Pages: 1 -->
<svg width="792pt" height="404pt"
 viewBox="0.00 0.00 792.00 404.00" xmlns="http://www.w3.org/2000/svg" xmlns:xlink="http://www.w3.org/1999/xlink">
<g id="graph0" class="graph" transform="scale(1 1) rotate(0) translate(4 400)">
<title>snakemake_dag</title>
<polygon fill="#ffffff" stroke="transparent" points="-4,4 -4,-400 788,-400 788,4 -4,4"/>
<!-- 0 -->
<g id="node1" class="node">
<title>0</title>
<path fill="none" stroke="#d85656" stroke-width="2" stroke-dasharray="5,2" d="M377,-36C377,-36 347,-36 347,-36 341,-36 335,-30 335,-24 335,-24 335,-12 335,-12 335,-6 341,0 347,0 347,0 377,0 377,0 383,0 389,-6 389,-12 389,-12 389,-24 389,-24 389,-30 383,-36 377,-36"/>
<text text-anchor="middle" x="362" y="-15.5" font-family="sans" font-size="10.00" fill="#000000">all</text>
</g>
<!-- 1 -->
<g id="node2" class="node">
<title>1</title>
<path fill="none" stroke="#bed856" stroke-width="2" stroke-dasharray="5,2" d="M340.5,-108C340.5,-108 271.5,-108 271.5,-108 265.5,-108 259.5,-102 259.5,-96 259.5,-96 259.5,-84 259.5,-84 259.5,-78 265.5,-72 271.5,-72 271.5,-72 340.5,-72 340.5,-72 346.5,-72 352.5,-78 352.5,-84 352.5,-84 352.5,-96 352.5,-96 352.5,-102 346.5,-108 340.5,-108"/>
<text text-anchor="middle" x="306" y="-87.5" font-family="sans" font-size="10.00" fill="#000000">plot_annotation</text>
</g>
<!-- 1&#45;&gt;0 -->
<g id="edge1" class="edge">
<title>1&#45;&gt;0</title>
<path fill="none" stroke="#c0c0c0" stroke-width="2" d="M320.1312,-71.8314C326.5811,-63.5386 334.3445,-53.557 341.4252,-44.4533"/>
<polygon fill="#c0c0c0" stroke="#c0c0c0" stroke-width="2" points="344.3019,-46.4556 347.6786,-36.4133 338.7764,-42.158 344.3019,-46.4556"/>
</g>
<!-- 2 -->
<g id="node3" class="node">
<title>2</title>
<path fill="none" stroke="#56c1d8" stroke-width="2" stroke-dasharray="5,2" d="M368.5,-180C368.5,-180 287.5,-180 287.5,-180 281.5,-180 275.5,-174 275.5,-168 275.5,-168 275.5,-156 275.5,-156 275.5,-150 281.5,-144 287.5,-144 287.5,-144 368.5,-144 368.5,-144 374.5,-144 380.5,-150 380.5,-156 380.5,-156 380.5,-168 380.5,-168 380.5,-174 374.5,-180 368.5,-180"/>
<text text-anchor="middle" x="328" y="-159.5" font-family="sans" font-size="10.00" fill="#000000">annotate_variants</text>
</g>
<!-- 2&#45;&gt;1 -->
<g id="edge9" class="edge">
<title>2&#45;&gt;1</title>
<path fill="none" stroke="#c0c0c0" stroke-width="2" d="M322.4485,-143.8314C320.0697,-136.0463 317.2362,-126.7729 314.5967,-118.1347"/>
<polygon fill="#c0c0c0" stroke="#c0c0c0" stroke-width="2" points="317.8958,-116.954 311.6263,-108.4133 311.2013,-118.9996 317.8958,-116.954"/>
</g>
<!-- 6 -->
<g id="node7" class="node">
<title>6</title>
<path fill="none" stroke="#d88d56" stroke-width="2" stroke-dasharray="5,2" d="M229.5,-108C229.5,-108 158.5,-108 158.5,-108 152.5,-108 146.5,-102 146.5,-96 146.5,-96 146.5,-84 146.5,-84 146.5,-78 152.5,-72 158.5,-72 158.5,-72 229.5,-72 229.5,-72 235.5,-72 241.5,-78 241.5,-84 241.5,-84 241.5,-96 241.5,-96 241.5,-102 235.5,-108 229.5,-108"/>
<text text-anchor="middle" x="194" y="-87.5" font-family="sans" font-size="10.00" fill="#000000">plot_haplotypes</text>
</g>
<!-- 2&#45;&gt;6 -->
<g id="edge14" class="edge">
<title>2&#45;&gt;6</title>
<path fill="none" stroke="#c0c0c0" stroke-width="2" d="M294.1861,-143.8314C276.7293,-134.4516 255.2513,-122.9112 236.6648,-112.9244"/>
<polygon fill="#c0c0c0" stroke="#c0c0c0" stroke-width="2" points="238.2686,-109.8129 227.803,-108.1628 234.9554,-115.9792 238.2686,-109.8129"/>
</g>
<!-- 9 -->
<g id="node10" class="node">
<title>9</title>
<path fill="none" stroke="#d88d56" stroke-width="2" stroke-dasharray="5,2" d="M453.5,-108C453.5,-108 382.5,-108 382.5,-108 376.5,-108 370.5,-102 370.5,-96 370.5,-96 370.5,-84 370.5,-84 370.5,-78 376.5,-72 382.5,-72 382.5,-72 453.5,-72 453.5,-72 459.5,-72 465.5,-78 465.5,-84 465.5,-84 465.5,-96 465.5,-96 465.5,-102 459.5,-108 453.5,-108"/>
<text text-anchor="middle" x="418" y="-87.5" font-family="sans" font-size="10.00" fill="#000000">plot_haplotypes</text>
</g>
<!-- 2&#45;&gt;9 -->
<g id="edge19" class="edge">
<title>2&#45;&gt;9</title>
<path fill="none" stroke="#c0c0c0" stroke-width="2" d="M350.7108,-143.8314C361.796,-134.9632 375.2954,-124.1637 387.2852,-114.5718"/>
<polygon fill="#c0c0c0" stroke="#c0c0c0" stroke-width="2" points="389.6742,-117.1429 395.2965,-108.1628 385.3013,-111.6768 389.6742,-117.1429"/>
</g>
<!-- 12 -->
<g id="node13" class="node">
<title>12</title>
<path fill="none" stroke="#d88d56" stroke-width="2" stroke-dasharray="5,2" d="M669.5,-108C669.5,-108 598.5,-108 598.5,-108 592.5,-108 586.5,-102 586.5,-96 586.5,-96 586.5,-84 586.5,-84 586.5,-78 592.5,-72 598.5,-72 598.5,-72 669.5,-72 669.5,-72 675.5,-72 681.5,-78 681.5,-84 681.5,-84 681.5,-96 681.5,-96 681.5,-102 675.5,-108 669.5,-108"/>
<text text-anchor="middle" x="634" y="-87.5" font-family="sans" font-size="10.00" fill="#000000">plot_haplotypes</text>
</g>
<!-- 2&#45;&gt;12 -->
<g id="edge24" class="edge">
<title>2&#45;&gt;12</title>
<path fill="none" stroke="#c0c0c0" stroke-width="2" d="M380.8005,-152.0204C429.2601,-142.5303 503.1916,-127.2212 576.3525,-108.0522"/>
<polygon fill="#c0c0c0" stroke="#c0c0c0" stroke-width="2" points="577.4275,-111.3882 586.1998,-105.447 575.6372,-104.621 577.4275,-111.3882"/>
</g>
<!-- 3 -->
<g id="node4" class="node">
<title>3</title>
<path fill="none" stroke="#88d856" stroke-width="2" stroke-dasharray="5,2" d="M412.5,-324C412.5,-324 363.5,-324 363.5,-324 357.5,-324 351.5,-318 351.5,-312 351.5,-312 351.5,-300 351.5,-300 351.5,-294 357.5,-288 363.5,-288 363.5,-288 412.5,-288 412.5,-288 418.5,-288 424.5,-294 424.5,-300 424.5,-300 424.5,-312 424.5,-312 424.5,-318 418.5,-324 412.5,-324"/>
<text text-anchor="middle" x="388" y="-303.5" font-family="sans" font-size="10.00" fill="#000000">get_dosage</text>
</g>
<!-- 3&#45;&gt;2 -->
<g id="edge10" class="edge">
<title>3&#45;&gt;2</title>
<path fill="none" stroke="#c0c0c0" stroke-width="2" d="M380.401,-287.7623C370.0769,-262.9846 351.5297,-218.4714 339.4975,-189.5939"/>
<polygon fill="#c0c0c0" stroke="#c0c0c0" stroke-width="2" points="342.6143,-187.9742 335.5373,-180.0896 336.1528,-190.6666 342.6143,-187.9742"/>
</g>
<!-- 5 -->
<g id="node6" class="node">
<title>5</title>
<path fill="none" stroke="#59d856" stroke-width="2" stroke-dasharray="5,2" d="M78,-252C78,-252 12,-252 12,-252 6,-252 0,-246 0,-240 0,-240 0,-228 0,-228 0,-222 6,-216 12,-216 12,-216 78,-216 78,-216 84,-216 90,-222 90,-228 90,-228 90,-240 90,-240 90,-246 84,-252 78,-252"/>
<text text-anchor="middle" x="45" y="-231.5" font-family="sans" font-size="10.00" fill="#000000">plot_histogram</text>
</g>
<!-- 3&#45;&gt;5 -->
<g id="edge12" class="edge">
<title>3&#45;&gt;5</title>
<path fill="none" stroke="#c0c0c0" stroke-width="2" d="M351.209,-298.9577C299.6442,-288.9969 202.9929,-269.996 121,-252 114.3262,-250.5352 107.335,-248.9497 100.41,-247.3476"/>
<polygon fill="#c0c0c0" stroke="#c0c0c0" stroke-width="2" points="100.89,-243.8657 90.3562,-245.0009 99.2988,-250.6824 100.89,-243.8657"/>
</g>
<!-- 3&#45;&gt;6 -->
<g id="edge15" class="edge">
<title>3&#45;&gt;6</title>
<path fill="none" stroke="#c0c0c0" stroke-width="2" d="M369.2447,-287.7374C344.7922,-263.6809 301.0147,-219.7612 266,-180 247.8166,-159.3517 228.3951,-134.9204 214.3112,-116.7266"/>
<polygon fill="#c0c0c0" stroke="#c0c0c0" stroke-width="2" points="216.7284,-114.1289 207.8549,-108.3401 211.1817,-118.3991 216.7284,-114.1289"/>
</g>
<!-- 8 -->
<g id="node9" class="node">
<title>8</title>
<path fill="none" stroke="#d8bc56" stroke-width="2" stroke-dasharray="5,2" d="M203.5,-252C203.5,-252 142.5,-252 142.5,-252 136.5,-252 130.5,-246 130.5,-240 130.5,-240 130.5,-228 130.5,-228 130.5,-222 136.5,-216 142.5,-216 142.5,-216 203.5,-216 203.5,-216 209.5,-216 215.5,-222 215.5,-228 215.5,-228 215.5,-240 215.5,-240 215.5,-246 209.5,-252 203.5,-252"/>
<text text-anchor="middle" x="173" y="-237" font-family="sans" font-size="10.00" fill="#000000">merge_data</text>
<text text-anchor="middle" x="173" y="-226" font-family="sans" font-size="10.00" fill="#000000">dataset: meta</text>
</g>
<!-- 3&#45;&gt;8 -->
<g id="edge17" class="edge">
<title>3&#45;&gt;8</title>
<path fill="none" stroke="#c0c0c0" stroke-width="2" d="M351.0402,-293.6228C316.3967,-282.0212 264.254,-264.5595 225.3391,-251.5275"/>
<polygon fill="#c0c0c0" stroke="#c0c0c0" stroke-width="2" points="226.3431,-248.1727 215.7492,-248.316 224.1202,-254.8104 226.3431,-248.1727"/>
</g>
<!-- 3&#45;&gt;9 -->
<g id="edge20" class="edge">
<title>3&#45;&gt;9</title>
<path fill="none" stroke="#c0c0c0" stroke-width="2" d="M390.5062,-287.9555C395.7341,-250.3144 407.8352,-163.1867 414.0938,-118.1246"/>
<polygon fill="#c0c0c0" stroke="#c0c0c0" stroke-width="2" points="417.5708,-118.5315 415.4799,-108.1451 410.6374,-117.5685 417.5708,-118.5315"/>
</g>
<!-- 11 -->
<g id="node12" class="node">
<title>11</title>
<path fill="none" stroke="#d8bc56" stroke-width="2" stroke-dasharray="5,2" d="M512.5,-252C512.5,-252 453.5,-252 453.5,-252 447.5,-252 441.5,-246 441.5,-240 441.5,-240 441.5,-228 441.5,-228 441.5,-222 447.5,-216 453.5,-216 453.5,-216 512.5,-216 512.5,-216 518.5,-216 524.5,-222 524.5,-228 524.5,-228 524.5,-240 524.5,-240 524.5,-246 518.5,-252 512.5,-252"/>
<text text-anchor="middle" x="483" y="-237" font-family="sans" font-size="10.00" fill="#000000">merge_data</text>
<text text-anchor="middle" x="483" y="-226" font-family="sans" font-size="10.00" fill="#000000">dataset: phen</text>
</g>
<!-- 3&#45;&gt;11 -->
<g id="edge22" class="edge">
<title>3&#45;&gt;11</title>
<path fill="none" stroke="#c0c0c0" stroke-width="2" d="M411.9725,-287.8314C423.7861,-278.8779 438.1972,-267.9558 450.9435,-258.2955"/>
<polygon fill="#c0c0c0" stroke="#c0c0c0" stroke-width="2" points="453.1795,-260.9925 459.0352,-252.1628 448.9514,-255.4137 453.1795,-260.9925"/>
</g>
<!-- 3&#45;&gt;12 -->
<g id="edge25" class="edge">
<title>3&#45;&gt;12</title>
<path fill="none" stroke="#c0c0c0" stroke-width="2" d="M424.5179,-300.3782C456.5523,-293.7539 502.6351,-279.8967 533,-252 572.0903,-216.0872 554.2877,-187.9881 584,-144 590.7482,-134.0096 599.3147,-124.0475 607.4423,-115.4502"/>
<polygon fill="#c0c0c0" stroke="#c0c0c0" stroke-width="2" points="609.9526,-117.8891 614.415,-108.2799 604.9342,-113.009 609.9526,-117.8891"/>
</g>
<!-- 14 -->
<g id="node15" class="node">
<title>14</title>
<path fill="none" stroke="#d8bc56" stroke-width="2" stroke-dasharray="5,2" d="M665.5,-252C665.5,-252 610.5,-252 610.5,-252 604.5,-252 598.5,-246 598.5,-240 598.5,-240 598.5,-228 598.5,-228 598.5,-222 604.5,-216 610.5,-216 610.5,-216 665.5,-216 665.5,-216 671.5,-216 677.5,-222 677.5,-228 677.5,-228 677.5,-240 677.5,-240 677.5,-246 671.5,-252 665.5,-252"/>
<text text-anchor="middle" x="638" y="-237" font-family="sans" font-size="10.00" fill="#000000">merge_data</text>
<text text-anchor="middle" x="638" y="-226" font-family="sans" font-size="10.00" fill="#000000">dataset: prot</text>
</g>
<!-- 3&#45;&gt;14 -->
<g id="edge27" class="edge">
<title>3&#45;&gt;14</title>
<path fill="none" stroke="#c0c0c0" stroke-width="2" d="M424.6803,-295.8711C463.1809,-285.1831 525.4404,-267.7395 579,-252 582.1338,-251.0791 585.3583,-250.1221 588.6075,-249.1507"/>
<polygon fill="#c0c0c0" stroke="#c0c0c0" stroke-width="2" points="589.7956,-252.4483 598.3629,-246.215 587.7784,-245.7452 589.7956,-252.4483"/>
</g>
<!-- 4 -->
<g id="node5" class="node">
<title>4</title>
<path fill="none" stroke="#56d88a" stroke-width="2" stroke-dasharray="5,2" d="M421.5,-396C421.5,-396 354.5,-396 354.5,-396 348.5,-396 342.5,-390 342.5,-384 342.5,-384 342.5,-372 342.5,-372 342.5,-366 348.5,-360 354.5,-360 354.5,-360 421.5,-360 421.5,-360 427.5,-360 433.5,-366 433.5,-372 433.5,-372 433.5,-384 433.5,-384 433.5,-390 427.5,-396 421.5,-396"/>
<text text-anchor="middle" x="388" y="-381" font-family="sans" font-size="10.00" fill="#000000">get_locus</text>
<text text-anchor="middle" x="388" y="-370" font-family="sans" font-size="10.00" fill="#000000">locus: SLC34A1</text>
</g>
<!-- 4&#45;&gt;3 -->
<g id="edge11" class="edge">
<title>4&#45;&gt;3</title>
<path fill="none" stroke="#c0c0c0" stroke-width="2" d="M388,-359.8314C388,-352.131 388,-342.9743 388,-334.4166"/>
<polygon fill="#c0c0c0" stroke="#c0c0c0" stroke-width="2" points="391.5001,-334.4132 388,-324.4133 384.5001,-334.4133 391.5001,-334.4132"/>
</g>
<!-- 5&#45;&gt;0 -->
<g id="edge2" class="edge">
<title>5&#45;&gt;0</title>
<path fill="none" stroke="#c0c0c0" stroke-width="2" d="M36.6591,-215.9094C22.885,-183.0192 .1809,-113.0406 35,-72 53.6143,-50.0597 242.7648,-29.4391 324.5993,-21.4698"/>
<polygon fill="#c0c0c0" stroke="#c0c0c0" stroke-width="2" points="325.329,-24.9158 334.9477,-20.4739 324.6584,-17.948 325.329,-24.9158"/>
</g>
<!-- 6&#45;&gt;0 -->
<g id="edge3" class="edge">
<title>6&#45;&gt;0</title>
<path fill="none" stroke="#c0c0c0" stroke-width="2" d="M236.3935,-71.8314C263.9236,-60.0328 299.4305,-44.8155 325.6655,-33.5719"/>
<polygon fill="#c0c0c0" stroke="#c0c0c0" stroke-width="2" points="327.0669,-36.7793 334.8796,-29.623 324.3094,-30.3453 327.0669,-36.7793"/>
</g>
<!-- 7 -->
<g id="node8" class="node">
<title>7</title>
<path fill="none" stroke="#56d8c1" stroke-width="2" stroke-dasharray="5,2" d="M207,-180C207,-180 131,-180 131,-180 125,-180 119,-174 119,-168 119,-168 119,-156 119,-156 119,-150 125,-144 131,-144 131,-144 207,-144 207,-144 213,-144 219,-150 219,-156 219,-156 219,-168 219,-168 219,-174 213,-180 207,-180"/>
<text text-anchor="middle" x="169" y="-159.5" font-family="sans" font-size="10.00" fill="#000000">build_haplotypes</text>
</g>
<!-- 7&#45;&gt;6 -->
<g id="edge13" class="edge">
<title>7&#45;&gt;6</title>
<path fill="none" stroke="#c0c0c0" stroke-width="2" d="M175.3086,-143.8314C178.0117,-136.0463 181.2316,-126.7729 184.231,-118.1347"/>
<polygon fill="#c0c0c0" stroke="#c0c0c0" stroke-width="2" points="187.6327,-119.0081 187.6065,-108.4133 181.02,-116.7119 187.6327,-119.0081"/>
</g>
<!-- 15 -->
<g id="node16" class="node">
<title>15</title>
<path fill="none" stroke="#568ad8" stroke-width="2" stroke-dasharray="5,2" d="M116,-108C116,-108 56,-108 56,-108 50,-108 44,-102 44,-96 44,-96 44,-84 44,-84 44,-78 50,-72 56,-72 56,-72 116,-72 116,-72 122,-72 128,-78 128,-84 128,-84 128,-96 128,-96 128,-102 122,-108 116,-108"/>
<text text-anchor="middle" x="86" y="-87.5" font-family="sans" font-size="10.00" fill="#000000">plot_heatmap</text>
</g>
<!-- 7&#45;&gt;15 -->
<g id="edge28" class="edge">
<title>7&#45;&gt;15</title>
<path fill="none" stroke="#c0c0c0" stroke-width="2" d="M148.0556,-143.8314C137.9309,-135.0485 125.6223,-124.3712 114.6452,-114.8489"/>
<polygon fill="#c0c0c0" stroke="#c0c0c0" stroke-width="2" points="116.7851,-112.0718 106.9377,-108.1628 112.1981,-117.3595 116.7851,-112.0718"/>
</g>
<!-- 8&#45;&gt;7 -->
<g id="edge16" class="edge">
<title>8&#45;&gt;7</title>
<path fill="none" stroke="#c0c0c0" stroke-width="2" d="M171.9906,-215.8314C171.5628,-208.131 171.0541,-198.9743 170.5787,-190.4166"/>
<polygon fill="#c0c0c0" stroke="#c0c0c0" stroke-width="2" points="174.0724,-190.2037 170.023,-180.4133 167.0831,-190.592 174.0724,-190.2037"/>
</g>
<!-- 9&#45;&gt;0 -->
<g id="edge4" class="edge">
<title>9&#45;&gt;0</title>
<path fill="none" stroke="#c0c0c0" stroke-width="2" d="M403.8688,-71.8314C397.4189,-63.5386 389.6555,-53.557 382.5748,-44.4533"/>
<polygon fill="#c0c0c0" stroke="#c0c0c0" stroke-width="2" points="385.2236,-42.158 376.3214,-36.4133 379.6981,-46.4556 385.2236,-42.158"/>
</g>
<!-- 10 -->
<g id="node11" class="node">
<title>10</title>
<path fill="none" stroke="#56d8c1" stroke-width="2" stroke-dasharray="5,2" d="M525,-180C525,-180 449,-180 449,-180 443,-180 437,-174 437,-168 437,-168 437,-156 437,-156 437,-150 443,-144 449,-144 449,-144 525,-144 525,-144 531,-144 537,-150 537,-156 537,-156 537,-168 537,-168 537,-174 531,-180 525,-180"/>
<text text-anchor="middle" x="487" y="-159.5" font-family="sans" font-size="10.00" fill="#000000">build_haplotypes</text>
</g>
<!-- 10&#45;&gt;9 -->
<g id="edge18" class="edge">
<title>10&#45;&gt;9</title>
<path fill="none" stroke="#c0c0c0" stroke-width="2" d="M469.5884,-143.8314C461.479,-135.3694 451.6844,-125.1489 442.818,-115.8971"/>
<polygon fill="#c0c0c0" stroke="#c0c0c0" stroke-width="2" points="445.0921,-113.2115 435.646,-108.4133 440.0382,-118.0549 445.0921,-113.2115"/>
</g>
<!-- 16 -->
<g id="node17" class="node">
<title>16</title>
<path fill="none" stroke="#568ad8" stroke-width="2" stroke-dasharray="5,2" d="M556,-108C556,-108 496,-108 496,-108 490,-108 484,-102 484,-96 484,-96 484,-84 484,-84 484,-78 490,-72 496,-72 496,-72 556,-72 556,-72 562,-72 568,-78 568,-84 568,-84 568,-96 568,-96 568,-102 562,-108 556,-108"/>
<text text-anchor="middle" x="526" y="-87.5" font-family="sans" font-size="10.00" fill="#000000">plot_heatmap</text>
</g>
<!-- 10&#45;&gt;16 -->
<g id="edge29" class="edge">
<title>10&#45;&gt;16</title>
<path fill="none" stroke="#c0c0c0" stroke-width="2" d="M496.8413,-143.8314C501.1957,-135.7925 506.4098,-126.1666 511.2169,-117.2918"/>
<polygon fill="#c0c0c0" stroke="#c0c0c0" stroke-width="2" points="514.3408,-118.8732 516.0261,-108.4133 508.1857,-115.5392 514.3408,-118.8732"/>
</g>
<!-- 11&#45;&gt;10 -->
<g id="edge21" class="edge">
<title>11&#45;&gt;10</title>
<path fill="none" stroke="#c0c0c0" stroke-width="2" d="M484.0094,-215.8314C484.4372,-208.131 484.9459,-198.9743 485.4213,-190.4166"/>
<polygon fill="#c0c0c0" stroke="#c0c0c0" stroke-width="2" points="488.9169,-190.592 485.977,-180.4133 481.9276,-190.2037 488.9169,-190.592"/>
</g>
<!-- 12&#45;&gt;0 -->
<g id="edge5" class="edge">
<title>12&#45;&gt;0</title>
<path fill="none" stroke="#c0c0c0" stroke-width="2" d="M586.4782,-74.7594C583.2768,-73.8048 580.0953,-72.8766 577,-72 514.9512,-54.4276 442.0158,-36.7235 399.03,-26.5889"/>
<polygon fill="#c0c0c0" stroke="#c0c0c0" stroke-width="2" points="399.8256,-23.1805 389.2902,-24.3013 398.225,-29.9951 399.8256,-23.1805"/>
</g>
<!-- 13 -->
<g id="node14" class="node">
<title>13</title>
<path fill="none" stroke="#56d8c1" stroke-width="2" stroke-dasharray="5,2" d="M681,-180C681,-180 605,-180 605,-180 599,-180 593,-174 593,-168 593,-168 593,-156 593,-156 593,-150 599,-144 605,-144 605,-144 681,-144 681,-144 687,-144 693,-150 693,-156 693,-156 693,-168 693,-168 693,-174 687,-180 681,-180"/>
<text text-anchor="middle" x="643" y="-159.5" font-family="sans" font-size="10.00" fill="#000000">build_haplotypes</text>
</g>
<!-- 13&#45;&gt;12 -->
<g id="edge23" class="edge">
<title>13&#45;&gt;12</title>
<path fill="none" stroke="#c0c0c0" stroke-width="2" d="M640.7289,-143.8314C639.7664,-136.131 638.6218,-126.9743 637.5521,-118.4166"/>
<polygon fill="#c0c0c0" stroke="#c0c0c0" stroke-width="2" points="641.0151,-117.9019 636.3017,-108.4133 634.0691,-118.7702 641.0151,-117.9019"/>
</g>
<!-- 17 -->
<g id="node18" class="node">
<title>17</title>
<path fill="none" stroke="#568ad8" stroke-width="2" stroke-dasharray="5,2" d="M772,-108C772,-108 712,-108 712,-108 706,-108 700,-102 700,-96 700,-96 700,-84 700,-84 700,-78 706,-72 712,-72 712,-72 772,-72 772,-72 778,-72 784,-78 784,-84 784,-84 784,-96 784,-96 784,-102 778,-108 772,-108"/>
<text text-anchor="middle" x="742" y="-87.5" font-family="sans" font-size="10.00" fill="#000000">plot_heatmap</text>
</g>
<!-- 13&#45;&gt;17 -->
<g id="edge30" class="edge">
<title>13&#45;&gt;17</title>
<path fill="none" stroke="#c0c0c0" stroke-width="2" d="M667.9819,-143.8314C680.2928,-134.8779 695.3107,-123.9558 708.5937,-114.2955"/>
<polygon fill="#c0c0c0" stroke="#c0c0c0" stroke-width="2" points="710.9973,-116.8752 717.0261,-108.1628 706.8801,-111.214 710.9973,-116.8752"/>
</g>
<!-- 14&#45;&gt;13 -->
<g id="edge26" class="edge">
<title>14&#45;&gt;13</title>
<path fill="none" stroke="#c0c0c0" stroke-width="2" d="M639.2617,-215.8314C639.7965,-208.131 640.4323,-198.9743 641.0266,-190.4166"/>
<polygon fill="#c0c0c0" stroke="#c0c0c0" stroke-width="2" points="644.52,-190.6317 641.7213,-180.4133 637.5368,-190.1467 644.52,-190.6317"/>
</g>
<!-- 15&#45;&gt;0 -->
<g id="edge6" class="edge">
<title>15&#45;&gt;0</title>
<path fill="none" stroke="#c0c0c0" stroke-width="2" d="M128.1904,-74.7298C131.1607,-73.7718 134.1186,-72.8517 137,-72 202.404,-52.6663 280.0164,-35.2263 324.8786,-25.6714"/>
<polygon fill="#c0c0c0" stroke="#c0c0c0" stroke-width="2" points="325.6854,-29.0783 334.7448,-23.585 324.237,-22.2298 325.6854,-29.0783"/>
</g>
<!-- 16&#45;&gt;0 -->
<g id="edge7" class="edge">
<title>16&#45;&gt;0</title>
<path fill="none" stroke="#c0c0c0" stroke-width="2" d="M484.6159,-71.8314C458.1957,-60.2323 424.2497,-45.3291 398.7762,-34.1457"/>
<polygon fill="#c0c0c0" stroke="#c0c0c0" stroke-width="2" points="400.0249,-30.8715 389.4615,-30.0563 397.2109,-37.281 400.0249,-30.8715"/>
</g>
<!-- 17&#45;&gt;0 -->
<g id="edge8" class="edge">
<title>17&#45;&gt;0</title>
<path fill="none" stroke="#c0c0c0" stroke-width="2" d="M699.8967,-74.7539C696.5681,-73.7547 693.2412,-72.8214 690,-72 586.0848,-45.6644 460.2805,-29.1163 399.0637,-22.0176"/>
<polygon fill="#c0c0c0" stroke="#c0c0c0" stroke-width="2" points="399.4371,-18.5376 389.1045,-20.8804 398.6429,-25.4924 399.4371,-18.5376"/>
</g>
</g>
</svg>
