<?xml version="1.0" encoding="UTF-8" standalone="no"?>
<!DOCTYPE svg PUBLIC "-//W3C//DTD SVG 1.1//EN"
 "http://www.w3.org/Graphics/SVG/1.1/DTD/svg11.dtd">
<!-- Generated by graphviz version 2.40.1 (0)
 -->
<!-- Title: snakemake_dag Pages: 1 -->
<svg width="1074pt" height="404pt"
 viewBox="0.00 0.00 1074.00 404.00" xmlns="http://www.w3.org/2000/svg" xmlns:xlink="http://www.w3.org/1999/xlink">
<g id="graph0" class="graph" transform="scale(1 1) rotate(0) translate(4 400)">
<title>snakemake_dag</title>
<polygon fill="#ffffff" stroke="transparent" points="-4,4 -4,-400 1070,-400 1070,4 -4,4"/>
<!-- 0 -->
<g id="node1" class="node">
<title>0</title>
<path fill="none" stroke="#70d856" stroke-width="2" d="M550,-36C550,-36 520,-36 520,-36 514,-36 508,-30 508,-24 508,-24 508,-12 508,-12 508,-6 514,0 520,0 520,0 550,0 550,0 556,0 562,-6 562,-12 562,-12 562,-24 562,-24 562,-30 556,-36 550,-36"/>
<text text-anchor="middle" x="535" y="-15.5" font-family="sans" font-size="10.00" fill="#000000">all</text>
</g>
<!-- 1 -->
<g id="node2" class="node">
<title>1</title>
<path fill="none" stroke="#d85656" stroke-width="2" d="M296.5,-108C296.5,-108 227.5,-108 227.5,-108 221.5,-108 215.5,-102 215.5,-96 215.5,-96 215.5,-84 215.5,-84 215.5,-78 221.5,-72 227.5,-72 227.5,-72 296.5,-72 296.5,-72 302.5,-72 308.5,-78 308.5,-84 308.5,-84 308.5,-96 308.5,-96 308.5,-102 302.5,-108 296.5,-108"/>
<text text-anchor="middle" x="262" y="-87.5" font-family="sans" font-size="10.00" fill="#000000">plot_annotation</text>
</g>
<!-- 1&#45;&gt;0 -->
<g id="edge1" class="edge">
<title>1&#45;&gt;0</title>
<path fill="none" stroke="#c0c0c0" stroke-width="2" d="M308.7356,-74.446C311.5256,-73.598 314.2961,-72.7762 317,-72 380.1465,-53.8726 454.6061,-36.2148 498.1323,-26.261"/>
<polygon fill="#c0c0c0" stroke="#c0c0c0" stroke-width="2" points="499.0085,-29.6512 507.9825,-24.0194 497.4551,-22.8257 499.0085,-29.6512"/>
</g>
<!-- 2 -->
<g id="node3" class="node">
<title>2</title>
<path fill="none" stroke="#56c9d8" stroke-width="2" d="M302.5,-180C302.5,-180 221.5,-180 221.5,-180 215.5,-180 209.5,-174 209.5,-168 209.5,-168 209.5,-156 209.5,-156 209.5,-150 215.5,-144 221.5,-144 221.5,-144 302.5,-144 302.5,-144 308.5,-144 314.5,-150 314.5,-156 314.5,-156 314.5,-168 314.5,-168 314.5,-174 308.5,-180 302.5,-180"/>
<text text-anchor="middle" x="262" y="-159.5" font-family="sans" font-size="10.00" fill="#000000">annotate_variants</text>
</g>
<!-- 2&#45;&gt;1 -->
<g id="edge11" class="edge">
<title>2&#45;&gt;1</title>
<path fill="none" stroke="#c0c0c0" stroke-width="2" d="M262,-143.8314C262,-136.131 262,-126.9743 262,-118.4166"/>
<polygon fill="#c0c0c0" stroke="#c0c0c0" stroke-width="2" points="265.5001,-118.4132 262,-108.4133 258.5001,-118.4133 265.5001,-118.4132"/>
</g>
<!-- 9 -->
<g id="node10" class="node">
<title>9</title>
<path fill="none" stroke="#56d873" stroke-width="2" d="M409.5,-108C409.5,-108 338.5,-108 338.5,-108 332.5,-108 326.5,-102 326.5,-96 326.5,-96 326.5,-84 326.5,-84 326.5,-78 332.5,-72 338.5,-72 338.5,-72 409.5,-72 409.5,-72 415.5,-72 421.5,-78 421.5,-84 421.5,-84 421.5,-96 421.5,-96 421.5,-102 415.5,-108 409.5,-108"/>
<text text-anchor="middle" x="374" y="-87.5" font-family="sans" font-size="10.00" fill="#000000">plot_haplotypes</text>
</g>
<!-- 2&#45;&gt;9 -->
<g id="edge18" class="edge">
<title>2&#45;&gt;9</title>
<path fill="none" stroke="#c0c0c0" stroke-width="2" d="M290.2623,-143.8314C304.4552,-134.7074 321.8282,-123.539 337.0636,-113.7449"/>
<polygon fill="#c0c0c0" stroke="#c0c0c0" stroke-width="2" points="339.2276,-116.5146 345.7467,-108.1628 335.4422,-110.6263 339.2276,-116.5146"/>
</g>
<!-- 12 -->
<g id="node13" class="node">
<title>12</title>
<path fill="none" stroke="#56d873" stroke-width="2" d="M185.5,-108C185.5,-108 114.5,-108 114.5,-108 108.5,-108 102.5,-102 102.5,-96 102.5,-96 102.5,-84 102.5,-84 102.5,-78 108.5,-72 114.5,-72 114.5,-72 185.5,-72 185.5,-72 191.5,-72 197.5,-78 197.5,-84 197.5,-84 197.5,-96 197.5,-96 197.5,-102 191.5,-108 185.5,-108"/>
<text text-anchor="middle" x="150" y="-87.5" font-family="sans" font-size="10.00" fill="#000000">plot_haplotypes</text>
</g>
<!-- 2&#45;&gt;12 -->
<g id="edge22" class="edge">
<title>2&#45;&gt;12</title>
<path fill="none" stroke="#c0c0c0" stroke-width="2" d="M233.7377,-143.8314C219.5448,-134.7074 202.1718,-123.539 186.9364,-113.7449"/>
<polygon fill="#c0c0c0" stroke="#c0c0c0" stroke-width="2" points="188.5578,-110.6263 178.2533,-108.1628 184.7724,-116.5146 188.5578,-110.6263"/>
</g>
<!-- 3 -->
<g id="node4" class="node">
<title>3</title>
<path fill="none" stroke="#afd856" stroke-width="2" stroke-dasharray="5,2" d="M286.5,-324C286.5,-324 237.5,-324 237.5,-324 231.5,-324 225.5,-318 225.5,-312 225.5,-312 225.5,-300 225.5,-300 225.5,-294 231.5,-288 237.5,-288 237.5,-288 286.5,-288 286.5,-288 292.5,-288 298.5,-294 298.5,-300 298.5,-300 298.5,-312 298.5,-312 298.5,-318 292.5,-324 286.5,-324"/>
<text text-anchor="middle" x="262" y="-303.5" font-family="sans" font-size="10.00" fill="#000000">get_dosage</text>
</g>
<!-- 3&#45;&gt;2 -->
<g id="edge12" class="edge">
<title>3&#45;&gt;2</title>
<path fill="none" stroke="#c0c0c0" stroke-width="2" d="M262,-287.7623C262,-263.201 262,-219.2474 262,-190.3541"/>
<polygon fill="#c0c0c0" stroke="#c0c0c0" stroke-width="2" points="265.5001,-190.0896 262,-180.0896 258.5001,-190.0897 265.5001,-190.0896"/>
</g>
<!-- 11 -->
<g id="node12" class="node">
<title>11</title>
<path fill="none" stroke="#5692d8" stroke-width="2" d="M387.5,-252C387.5,-252 328.5,-252 328.5,-252 322.5,-252 316.5,-246 316.5,-240 316.5,-240 316.5,-228 316.5,-228 316.5,-222 322.5,-216 328.5,-216 328.5,-216 387.5,-216 387.5,-216 393.5,-216 399.5,-222 399.5,-228 399.5,-228 399.5,-240 399.5,-240 399.5,-246 393.5,-252 387.5,-252"/>
<text text-anchor="middle" x="358" y="-237" font-family="sans" font-size="10.00" fill="#000000">merge_data</text>
<text text-anchor="middle" x="358" y="-226" font-family="sans" font-size="10.00" fill="#000000">dataset: phen</text>
</g>
<!-- 3&#45;&gt;11 -->
<g id="edge20" class="edge">
<title>3&#45;&gt;11</title>
<path fill="none" stroke="#c0c0c0" stroke-width="2" d="M286.2249,-287.8314C298.1628,-278.8779 312.7256,-267.9558 325.606,-258.2955"/>
<polygon fill="#c0c0c0" stroke="#c0c0c0" stroke-width="2" points="327.8829,-260.9629 333.7829,-252.1628 323.6829,-255.3629 327.8829,-260.9629"/>
</g>
<!-- 14 -->
<g id="node15" class="node">
<title>14</title>
<path fill="none" stroke="#5692d8" stroke-width="2" d="M197,-252C197,-252 135,-252 135,-252 129,-252 123,-246 123,-240 123,-240 123,-228 123,-228 123,-222 129,-216 135,-216 135,-216 197,-216 197,-216 203,-216 209,-222 209,-228 209,-228 209,-240 209,-240 209,-246 203,-252 197,-252"/>
<text text-anchor="middle" x="166" y="-237" font-family="sans" font-size="10.00" fill="#000000">merge_data</text>
<text text-anchor="middle" x="166" y="-226" font-family="sans" font-size="10.00" fill="#000000">dataset: soma</text>
</g>
<!-- 3&#45;&gt;14 -->
<g id="edge24" class="edge">
<title>3&#45;&gt;14</title>
<path fill="none" stroke="#c0c0c0" stroke-width="2" d="M237.7751,-287.8314C225.8372,-278.8779 211.2744,-267.9558 198.394,-258.2955"/>
<polygon fill="#c0c0c0" stroke="#c0c0c0" stroke-width="2" points="200.3171,-255.3629 190.2171,-252.1628 196.1171,-260.9629 200.3171,-255.3629"/>
</g>
<!-- 4 -->
<g id="node5" class="node">
<title>4</title>
<path fill="none" stroke="#d8cb56" stroke-width="2" stroke-dasharray="5,2" d="M292.5,-396C292.5,-396 231.5,-396 231.5,-396 225.5,-396 219.5,-390 219.5,-384 219.5,-384 219.5,-372 219.5,-372 219.5,-366 225.5,-360 231.5,-360 231.5,-360 292.5,-360 292.5,-360 298.5,-360 304.5,-366 304.5,-372 304.5,-372 304.5,-384 304.5,-384 304.5,-390 298.5,-396 292.5,-396"/>
<text text-anchor="middle" x="262" y="-381" font-family="sans" font-size="10.00" fill="#000000">get_locus</text>
<text text-anchor="middle" x="262" y="-370" font-family="sans" font-size="10.00" fill="#000000">locus: region1</text>
</g>
<!-- 4&#45;&gt;3 -->
<g id="edge13" class="edge">
<title>4&#45;&gt;3</title>
<path fill="none" stroke="#c0c0c0" stroke-width="2" d="M262,-359.8314C262,-352.131 262,-342.9743 262,-334.4166"/>
<polygon fill="#c0c0c0" stroke="#c0c0c0" stroke-width="2" points="265.5001,-334.4132 262,-324.4133 258.5001,-334.4133 265.5001,-334.4132"/>
</g>
<!-- 5 -->
<g id="node6" class="node">
<title>5</title>
<path fill="none" stroke="#d85656" stroke-width="2" d="M623.5,-108C623.5,-108 554.5,-108 554.5,-108 548.5,-108 542.5,-102 542.5,-96 542.5,-96 542.5,-84 542.5,-84 542.5,-78 548.5,-72 554.5,-72 554.5,-72 623.5,-72 623.5,-72 629.5,-72 635.5,-78 635.5,-84 635.5,-84 635.5,-96 635.5,-96 635.5,-102 629.5,-108 623.5,-108"/>
<text text-anchor="middle" x="589" y="-87.5" font-family="sans" font-size="10.00" fill="#000000">plot_annotation</text>
</g>
<!-- 5&#45;&gt;0 -->
<g id="edge2" class="edge">
<title>5&#45;&gt;0</title>
<path fill="none" stroke="#c0c0c0" stroke-width="2" d="M575.3735,-71.8314C569.154,-63.5386 561.6678,-53.557 554.84,-44.4533"/>
<polygon fill="#c0c0c0" stroke="#c0c0c0" stroke-width="2" points="557.61,-42.3133 548.81,-36.4133 552.01,-46.5133 557.61,-42.3133"/>
</g>
<!-- 6 -->
<g id="node7" class="node">
<title>6</title>
<path fill="none" stroke="#56c9d8" stroke-width="2" d="M741.5,-180C741.5,-180 660.5,-180 660.5,-180 654.5,-180 648.5,-174 648.5,-168 648.5,-168 648.5,-156 648.5,-156 648.5,-150 654.5,-144 660.5,-144 660.5,-144 741.5,-144 741.5,-144 747.5,-144 753.5,-150 753.5,-156 753.5,-156 753.5,-168 753.5,-168 753.5,-174 747.5,-180 741.5,-180"/>
<text text-anchor="middle" x="701" y="-159.5" font-family="sans" font-size="10.00" fill="#000000">annotate_variants</text>
</g>
<!-- 6&#45;&gt;5 -->
<g id="edge14" class="edge">
<title>6&#45;&gt;5</title>
<path fill="none" stroke="#c0c0c0" stroke-width="2" d="M672.7377,-143.8314C658.5448,-134.7074 641.1718,-123.539 625.9364,-113.7449"/>
<polygon fill="#c0c0c0" stroke="#c0c0c0" stroke-width="2" points="627.5578,-110.6263 617.2533,-108.1628 623.7724,-116.5146 627.5578,-110.6263"/>
</g>
<!-- 15 -->
<g id="node16" class="node">
<title>15</title>
<path fill="none" stroke="#56d873" stroke-width="2" d="M736.5,-108C736.5,-108 665.5,-108 665.5,-108 659.5,-108 653.5,-102 653.5,-96 653.5,-96 653.5,-84 653.5,-84 653.5,-78 659.5,-72 665.5,-72 665.5,-72 736.5,-72 736.5,-72 742.5,-72 748.5,-78 748.5,-84 748.5,-84 748.5,-96 748.5,-96 748.5,-102 742.5,-108 736.5,-108"/>
<text text-anchor="middle" x="701" y="-87.5" font-family="sans" font-size="10.00" fill="#000000">plot_haplotypes</text>
</g>
<!-- 6&#45;&gt;15 -->
<g id="edge26" class="edge">
<title>6&#45;&gt;15</title>
<path fill="none" stroke="#c0c0c0" stroke-width="2" d="M701,-143.8314C701,-136.131 701,-126.9743 701,-118.4166"/>
<polygon fill="#c0c0c0" stroke="#c0c0c0" stroke-width="2" points="704.5001,-118.4132 701,-108.4133 697.5001,-118.4133 704.5001,-118.4132"/>
</g>
<!-- 18 -->
<g id="node19" class="node">
<title>18</title>
<path fill="none" stroke="#56d873" stroke-width="2" d="M849.5,-108C849.5,-108 778.5,-108 778.5,-108 772.5,-108 766.5,-102 766.5,-96 766.5,-96 766.5,-84 766.5,-84 766.5,-78 772.5,-72 778.5,-72 778.5,-72 849.5,-72 849.5,-72 855.5,-72 861.5,-78 861.5,-84 861.5,-84 861.5,-96 861.5,-96 861.5,-102 855.5,-108 849.5,-108"/>
<text text-anchor="middle" x="814" y="-87.5" font-family="sans" font-size="10.00" fill="#000000">plot_haplotypes</text>
</g>
<!-- 6&#45;&gt;18 -->
<g id="edge30" class="edge">
<title>6&#45;&gt;18</title>
<path fill="none" stroke="#c0c0c0" stroke-width="2" d="M729.5147,-143.8314C743.8342,-134.7074 761.3624,-123.539 776.7338,-113.7449"/>
<polygon fill="#c0c0c0" stroke="#c0c0c0" stroke-width="2" points="778.9417,-116.4882 785.4945,-108.1628 775.1801,-110.5847 778.9417,-116.4882"/>
</g>
<!-- 7 -->
<g id="node8" class="node">
<title>7</title>
<path fill="none" stroke="#afd856" stroke-width="2" stroke-dasharray="5,2" d="M846.5,-324C846.5,-324 797.5,-324 797.5,-324 791.5,-324 785.5,-318 785.5,-312 785.5,-312 785.5,-300 785.5,-300 785.5,-294 791.5,-288 797.5,-288 797.5,-288 846.5,-288 846.5,-288 852.5,-288 858.5,-294 858.5,-300 858.5,-300 858.5,-312 858.5,-312 858.5,-318 852.5,-324 846.5,-324"/>
<text text-anchor="middle" x="822" y="-303.5" font-family="sans" font-size="10.00" fill="#000000">get_dosage</text>
</g>
<!-- 7&#45;&gt;6 -->
<g id="edge15" class="edge">
<title>7&#45;&gt;6</title>
<path fill="none" stroke="#c0c0c0" stroke-width="2" d="M804.508,-287.8328C794.7382,-277.5079 782.4623,-264.2353 772,-252 754.2157,-231.2019 735.0531,-206.7817 721.1233,-188.6304"/>
<polygon fill="#c0c0c0" stroke="#c0c0c0" stroke-width="2" points="723.5862,-186.0887 714.7344,-180.2666 718.0234,-190.338 723.5862,-186.0887"/>
</g>
<!-- 17 -->
<g id="node18" class="node">
<title>17</title>
<path fill="none" stroke="#5692d8" stroke-width="2" d="M851.5,-252C851.5,-252 792.5,-252 792.5,-252 786.5,-252 780.5,-246 780.5,-240 780.5,-240 780.5,-228 780.5,-228 780.5,-222 786.5,-216 792.5,-216 792.5,-216 851.5,-216 851.5,-216 857.5,-216 863.5,-222 863.5,-228 863.5,-228 863.5,-240 863.5,-240 863.5,-246 857.5,-252 851.5,-252"/>
<text text-anchor="middle" x="822" y="-237" font-family="sans" font-size="10.00" fill="#000000">merge_data</text>
<text text-anchor="middle" x="822" y="-226" font-family="sans" font-size="10.00" fill="#000000">dataset: phen</text>
</g>
<!-- 7&#45;&gt;17 -->
<g id="edge28" class="edge">
<title>7&#45;&gt;17</title>
<path fill="none" stroke="#c0c0c0" stroke-width="2" d="M822,-287.8314C822,-280.131 822,-270.9743 822,-262.4166"/>
<polygon fill="#c0c0c0" stroke="#c0c0c0" stroke-width="2" points="825.5001,-262.4132 822,-252.4133 818.5001,-262.4133 825.5001,-262.4132"/>
</g>
<!-- 20 -->
<g id="node21" class="node">
<title>20</title>
<path fill="none" stroke="#5692d8" stroke-width="2" d="M963,-252C963,-252 901,-252 901,-252 895,-252 889,-246 889,-240 889,-240 889,-228 889,-228 889,-222 895,-216 901,-216 901,-216 963,-216 963,-216 969,-216 975,-222 975,-228 975,-228 975,-240 975,-240 975,-246 969,-252 963,-252"/>
<text text-anchor="middle" x="932" y="-237" font-family="sans" font-size="10.00" fill="#000000">merge_data</text>
<text text-anchor="middle" x="932" y="-226" font-family="sans" font-size="10.00" fill="#000000">dataset: soma</text>
</g>
<!-- 7&#45;&gt;20 -->
<g id="edge32" class="edge">
<title>7&#45;&gt;20</title>
<path fill="none" stroke="#c0c0c0" stroke-width="2" d="M849.7576,-287.8314C863.697,-278.7074 880.7598,-267.539 895.7231,-257.7449"/>
<polygon fill="#c0c0c0" stroke="#c0c0c0" stroke-width="2" points="897.801,-260.5679 904.2512,-252.1628 893.9674,-254.711 897.801,-260.5679"/>
</g>
<!-- 8 -->
<g id="node9" class="node">
<title>8</title>
<path fill="none" stroke="#d8cb56" stroke-width="2" stroke-dasharray="5,2" d="M852.5,-396C852.5,-396 791.5,-396 791.5,-396 785.5,-396 779.5,-390 779.5,-384 779.5,-384 779.5,-372 779.5,-372 779.5,-366 785.5,-360 791.5,-360 791.5,-360 852.5,-360 852.5,-360 858.5,-360 864.5,-366 864.5,-372 864.5,-372 864.5,-384 864.5,-384 864.5,-390 858.5,-396 852.5,-396"/>
<text text-anchor="middle" x="822" y="-381" font-family="sans" font-size="10.00" fill="#000000">get_locus</text>
<text text-anchor="middle" x="822" y="-370" font-family="sans" font-size="10.00" fill="#000000">locus: region2</text>
</g>
<!-- 8&#45;&gt;7 -->
<g id="edge16" class="edge">
<title>8&#45;&gt;7</title>
<path fill="none" stroke="#c0c0c0" stroke-width="2" d="M822,-359.8314C822,-352.131 822,-342.9743 822,-334.4166"/>
<polygon fill="#c0c0c0" stroke="#c0c0c0" stroke-width="2" points="825.5001,-334.4132 822,-324.4133 818.5001,-334.4133 825.5001,-334.4132"/>
</g>
<!-- 9&#45;&gt;0 -->
<g id="edge3" class="edge">
<title>9&#45;&gt;0</title>
<path fill="none" stroke="#c0c0c0" stroke-width="2" d="M414.6271,-71.8314C440.3988,-60.3061 473.4648,-45.5188 498.4177,-34.3598"/>
<polygon fill="#c0c0c0" stroke="#c0c0c0" stroke-width="2" points="499.8518,-37.5525 507.5517,-30.275 496.9941,-31.1624 499.8518,-37.5525"/>
</g>
<!-- 10 -->
<g id="node11" class="node">
<title>10</title>
<path fill="none" stroke="#d88d56" stroke-width="2" d="M421,-180C421,-180 345,-180 345,-180 339,-180 333,-174 333,-168 333,-168 333,-156 333,-156 333,-150 339,-144 345,-144 345,-144 421,-144 421,-144 427,-144 433,-150 433,-156 433,-156 433,-168 433,-168 433,-174 427,-180 421,-180"/>
<text text-anchor="middle" x="383" y="-159.5" font-family="sans" font-size="10.00" fill="#000000">build_haplotypes</text>
</g>
<!-- 10&#45;&gt;9 -->
<g id="edge17" class="edge">
<title>10&#45;&gt;9</title>
<path fill="none" stroke="#c0c0c0" stroke-width="2" d="M380.7289,-143.8314C379.7664,-136.131 378.6218,-126.9743 377.5521,-118.4166"/>
<polygon fill="#c0c0c0" stroke="#c0c0c0" stroke-width="2" points="381.0151,-117.9019 376.3017,-108.4133 374.0691,-118.7702 381.0151,-117.9019"/>
</g>
<!-- 21 -->
<g id="node22" class="node">
<title>21</title>
<path fill="none" stroke="#56d8a9" stroke-width="2" d="M512,-108C512,-108 452,-108 452,-108 446,-108 440,-102 440,-96 440,-96 440,-84 440,-84 440,-78 446,-72 452,-72 452,-72 512,-72 512,-72 518,-72 524,-78 524,-84 524,-84 524,-96 524,-96 524,-102 518,-108 512,-108"/>
<text text-anchor="middle" x="482" y="-87.5" font-family="sans" font-size="10.00" fill="#000000">plot_heatmap</text>
</g>
<!-- 10&#45;&gt;21 -->
<g id="edge33" class="edge">
<title>10&#45;&gt;21</title>
<path fill="none" stroke="#c0c0c0" stroke-width="2" d="M407.9819,-143.8314C420.2928,-134.8779 435.3107,-123.9558 448.5937,-114.2955"/>
<polygon fill="#c0c0c0" stroke="#c0c0c0" stroke-width="2" points="450.9973,-116.8752 457.0261,-108.1628 446.8801,-111.214 450.9973,-116.8752"/>
</g>
<!-- 11&#45;&gt;10 -->
<g id="edge19" class="edge">
<title>11&#45;&gt;10</title>
<path fill="none" stroke="#c0c0c0" stroke-width="2" d="M364.3086,-215.8314C367.0117,-208.0463 370.2316,-198.7729 373.231,-190.1347"/>
<polygon fill="#c0c0c0" stroke="#c0c0c0" stroke-width="2" points="376.6327,-191.0081 376.6065,-180.4133 370.02,-188.7119 376.6327,-191.0081"/>
</g>
<!-- 12&#45;&gt;0 -->
<g id="edge4" class="edge">
<title>12&#45;&gt;0</title>
<path fill="none" stroke="#c0c0c0" stroke-width="2" d="M197.5224,-74.1954C200.379,-73.4104 203.2204,-72.6709 206,-72 310.5172,-46.7726 436.5763,-29.7244 497.8877,-22.2679"/>
<polygon fill="#c0c0c0" stroke="#c0c0c0" stroke-width="2" points="498.3503,-25.7376 507.8617,-21.0704 497.5158,-18.7875 498.3503,-25.7376"/>
</g>
<!-- 13 -->
<g id="node14" class="node">
<title>13</title>
<path fill="none" stroke="#d88d56" stroke-width="2" d="M179,-180C179,-180 103,-180 103,-180 97,-180 91,-174 91,-168 91,-168 91,-156 91,-156 91,-150 97,-144 103,-144 103,-144 179,-144 179,-144 185,-144 191,-150 191,-156 191,-156 191,-168 191,-168 191,-174 185,-180 179,-180"/>
<text text-anchor="middle" x="141" y="-159.5" font-family="sans" font-size="10.00" fill="#000000">build_haplotypes</text>
</g>
<!-- 13&#45;&gt;12 -->
<g id="edge21" class="edge">
<title>13&#45;&gt;12</title>
<path fill="none" stroke="#c0c0c0" stroke-width="2" d="M143.2711,-143.8314C144.2336,-136.131 145.3782,-126.9743 146.4479,-118.4166"/>
<polygon fill="#c0c0c0" stroke="#c0c0c0" stroke-width="2" points="149.9309,-118.7702 147.6983,-108.4133 142.9849,-117.9019 149.9309,-118.7702"/>
</g>
<!-- 22 -->
<g id="node23" class="node">
<title>22</title>
<path fill="none" stroke="#56d8a9" stroke-width="2" d="M72,-108C72,-108 12,-108 12,-108 6,-108 0,-102 0,-96 0,-96 0,-84 0,-84 0,-78 6,-72 12,-72 12,-72 72,-72 72,-72 78,-72 84,-78 84,-84 84,-84 84,-96 84,-96 84,-102 78,-108 72,-108"/>
<text text-anchor="middle" x="42" y="-87.5" font-family="sans" font-size="10.00" fill="#000000">plot_heatmap</text>
</g>
<!-- 13&#45;&gt;22 -->
<g id="edge34" class="edge">
<title>13&#45;&gt;22</title>
<path fill="none" stroke="#c0c0c0" stroke-width="2" d="M116.0181,-143.8314C103.7072,-134.8779 88.6893,-123.9558 75.4063,-114.2955"/>
<polygon fill="#c0c0c0" stroke="#c0c0c0" stroke-width="2" points="77.1199,-111.214 66.9739,-108.1628 73.0027,-116.8752 77.1199,-111.214"/>
</g>
<!-- 14&#45;&gt;13 -->
<g id="edge23" class="edge">
<title>14&#45;&gt;13</title>
<path fill="none" stroke="#c0c0c0" stroke-width="2" d="M159.6914,-215.8314C156.9883,-208.0463 153.7684,-198.7729 150.769,-190.1347"/>
<polygon fill="#c0c0c0" stroke="#c0c0c0" stroke-width="2" points="153.98,-188.7119 147.3935,-180.4133 147.3673,-191.0081 153.98,-188.7119"/>
</g>
<!-- 15&#45;&gt;0 -->
<g id="edge5" class="edge">
<title>15&#45;&gt;0</title>
<path fill="none" stroke="#c0c0c0" stroke-width="2" d="M659.1112,-71.8314C632.1985,-60.1584 597.5708,-45.1391 571.7331,-33.9324"/>
<polygon fill="#c0c0c0" stroke="#c0c0c0" stroke-width="2" points="572.8622,-30.6072 562.2953,-29.8389 570.0768,-37.0291 572.8622,-30.6072"/>
</g>
<!-- 16 -->
<g id="node17" class="node">
<title>16</title>
<path fill="none" stroke="#d88d56" stroke-width="2" d="M860,-180C860,-180 784,-180 784,-180 778,-180 772,-174 772,-168 772,-168 772,-156 772,-156 772,-150 778,-144 784,-144 784,-144 860,-144 860,-144 866,-144 872,-150 872,-156 872,-156 872,-168 872,-168 872,-174 866,-180 860,-180"/>
<text text-anchor="middle" x="822" y="-159.5" font-family="sans" font-size="10.00" fill="#000000">build_haplotypes</text>
</g>
<!-- 16&#45;&gt;15 -->
<g id="edge25" class="edge">
<title>16&#45;&gt;15</title>
<path fill="none" stroke="#c0c0c0" stroke-width="2" d="M791.4666,-143.8314C775.9899,-134.6221 757.0131,-123.3301 740.4437,-113.4706"/>
<polygon fill="#c0c0c0" stroke="#c0c0c0" stroke-width="2" points="741.9071,-110.2687 731.5236,-108.1628 738.3276,-116.2843 741.9071,-110.2687"/>
</g>
<!-- 23 -->
<g id="node24" class="node">
<title>23</title>
<path fill="none" stroke="#56d8a9" stroke-width="2" d="M952,-108C952,-108 892,-108 892,-108 886,-108 880,-102 880,-96 880,-96 880,-84 880,-84 880,-78 886,-72 892,-72 892,-72 952,-72 952,-72 958,-72 964,-78 964,-84 964,-84 964,-96 964,-96 964,-102 958,-108 952,-108"/>
<text text-anchor="middle" x="922" y="-87.5" font-family="sans" font-size="10.00" fill="#000000">plot_heatmap</text>
</g>
<!-- 16&#45;&gt;23 -->
<g id="edge35" class="edge">
<title>16&#45;&gt;23</title>
<path fill="none" stroke="#c0c0c0" stroke-width="2" d="M847.2342,-143.8314C859.788,-134.7927 875.1283,-123.7476 888.6391,-114.0198"/>
<polygon fill="#c0c0c0" stroke="#c0c0c0" stroke-width="2" points="890.7036,-116.8463 896.7739,-108.1628 886.6134,-111.1655 890.7036,-116.8463"/>
</g>
<!-- 17&#45;&gt;16 -->
<g id="edge27" class="edge">
<title>17&#45;&gt;16</title>
<path fill="none" stroke="#c0c0c0" stroke-width="2" d="M822,-215.8314C822,-208.131 822,-198.9743 822,-190.4166"/>
<polygon fill="#c0c0c0" stroke="#c0c0c0" stroke-width="2" points="825.5001,-190.4132 822,-180.4133 818.5001,-190.4133 825.5001,-190.4132"/>
</g>
<!-- 18&#45;&gt;0 -->
<g id="edge6" class="edge">
<title>18&#45;&gt;0</title>
<path fill="none" stroke="#c0c0c0" stroke-width="2" d="M766.4132,-74.4419C763.5728,-73.5949 760.7525,-72.7745 758,-72 693.0773,-53.732 616.4874,-36.0075 572.0612,-26.0984"/>
<polygon fill="#c0c0c0" stroke="#c0c0c0" stroke-width="2" points="572.8066,-22.6787 562.2857,-23.9284 571.2896,-29.5124 572.8066,-22.6787"/>
</g>
<!-- 19 -->
<g id="node20" class="node">
<title>19</title>
<path fill="none" stroke="#d88d56" stroke-width="2" d="M978,-180C978,-180 902,-180 902,-180 896,-180 890,-174 890,-168 890,-168 890,-156 890,-156 890,-150 896,-144 902,-144 902,-144 978,-144 978,-144 984,-144 990,-150 990,-156 990,-156 990,-168 990,-168 990,-174 984,-180 978,-180"/>
<text text-anchor="middle" x="940" y="-159.5" font-family="sans" font-size="10.00" fill="#000000">build_haplotypes</text>
</g>
<!-- 19&#45;&gt;18 -->
<g id="edge29" class="edge">
<title>19&#45;&gt;18</title>
<path fill="none" stroke="#c0c0c0" stroke-width="2" d="M908.2049,-143.8314C891.9395,-134.5368 871.9614,-123.1208 854.5949,-113.1971"/>
<polygon fill="#c0c0c0" stroke="#c0c0c0" stroke-width="2" points="856.2039,-110.0854 845.7849,-108.1628 852.7309,-116.1631 856.2039,-110.0854"/>
</g>
<!-- 24 -->
<g id="node25" class="node">
<title>24</title>
<path fill="none" stroke="#56d8a9" stroke-width="2" d="M1054,-108C1054,-108 994,-108 994,-108 988,-108 982,-102 982,-96 982,-96 982,-84 982,-84 982,-78 988,-72 994,-72 994,-72 1054,-72 1054,-72 1060,-72 1066,-78 1066,-84 1066,-84 1066,-96 1066,-96 1066,-102 1060,-108 1054,-108"/>
<text text-anchor="middle" x="1024" y="-87.5" font-family="sans" font-size="10.00" fill="#000000">plot_heatmap</text>
</g>
<!-- 19&#45;&gt;24 -->
<g id="edge36" class="edge">
<title>19&#45;&gt;24</title>
<path fill="none" stroke="#c0c0c0" stroke-width="2" d="M961.1967,-143.8314C971.4434,-135.0485 983.9003,-124.3712 995.0097,-114.8489"/>
<polygon fill="#c0c0c0" stroke="#c0c0c0" stroke-width="2" points="997.4952,-117.3282 1002.81,-108.1628 992.9397,-112.0134 997.4952,-117.3282"/>
</g>
<!-- 20&#45;&gt;19 -->
<g id="edge31" class="edge">
<title>20&#45;&gt;19</title>
<path fill="none" stroke="#c0c0c0" stroke-width="2" d="M934.0187,-215.8314C934.8743,-208.131 935.8917,-198.9743 936.8426,-190.4166"/>
<polygon fill="#c0c0c0" stroke="#c0c0c0" stroke-width="2" points="940.3283,-190.7386 937.9541,-180.4133 933.3711,-189.9656 940.3283,-190.7386"/>
</g>
<!-- 21&#45;&gt;0 -->
<g id="edge7" class="edge">
<title>21&#45;&gt;0</title>
<path fill="none" stroke="#c0c0c0" stroke-width="2" d="M495.3741,-71.8314C501.4162,-63.6232 508.6763,-53.7606 515.3221,-44.7323"/>
<polygon fill="#c0c0c0" stroke="#c0c0c0" stroke-width="2" points="518.3363,-46.5415 521.4458,-36.4133 512.6989,-42.3918 518.3363,-46.5415"/>
</g>
<!-- 22&#45;&gt;0 -->
<g id="edge8" class="edge">
<title>22&#45;&gt;0</title>
<path fill="none" stroke="#c0c0c0" stroke-width="2" d="M84.0898,-74.3497C87.084,-73.4822 90.0748,-72.6862 93,-72 240.5385,-37.3878 421.2954,-24.1201 497.8866,-19.8034"/>
<polygon fill="#c0c0c0" stroke="#c0c0c0" stroke-width="2" points="498.1938,-23.292 507.9883,-19.2525 497.8125,-16.3024 498.1938,-23.292"/>
</g>
<!-- 23&#45;&gt;0 -->
<g id="edge9" class="edge">
<title>23&#45;&gt;0</title>
<path fill="none" stroke="#c0c0c0" stroke-width="2" d="M879.8793,-74.4763C876.8924,-73.5787 873.9117,-72.7414 871,-72 764.3759,-44.8514 635.0742,-28.6254 572.5118,-21.7973"/>
<polygon fill="#c0c0c0" stroke="#c0c0c0" stroke-width="2" points="572.6575,-18.293 562.3413,-20.7063 571.9109,-25.253 572.6575,-18.293"/>
</g>
<!-- 24&#45;&gt;0 -->
<g id="edge10" class="edge">
<title>24&#45;&gt;0</title>
<path fill="none" stroke="#c0c0c0" stroke-width="2" d="M981.9094,-74.3534C978.9153,-73.485 975.9248,-72.6879 973,-72 826.9739,-37.6579 648.1115,-24.2597 572.0552,-19.8571"/>
<polygon fill="#c0c0c0" stroke="#c0c0c0" stroke-width="2" points="572.2,-16.3598 562.0197,-19.2943 571.808,-23.3488 572.2,-16.3598"/>
</g>
</g>
</svg>
