<?xml version="1.0" encoding="UTF-8" standalone="no"?>
<!DOCTYPE svg PUBLIC "-//W3C//DTD SVG 1.1//EN"
 "http://www.w3.org/Graphics/SVG/1.1/DTD/svg11.dtd">
<!-- Generated by graphviz version 2.40.1 (0)
 -->
<!-- Title: snakemake_dag Pages: 1 -->
<svg width="1075pt" height="404pt"
 viewBox="0.00 0.00 1075.00 404.00" xmlns="http://www.w3.org/2000/svg" xmlns:xlink="http://www.w3.org/1999/xlink">
<g id="graph0" class="graph" transform="scale(1 1) rotate(0) translate(4 400)">
<title>snakemake_dag</title>
<polygon fill="#ffffff" stroke="transparent" points="-4,4 -4,-400 1071,-400 1071,4 -4,4"/>
<!-- 0 -->
<g id="node1" class="node">
<title>0</title>
<path fill="none" stroke="#d8cb56" stroke-width="2" d="M550,-36C550,-36 520,-36 520,-36 514,-36 508,-30 508,-24 508,-24 508,-12 508,-12 508,-6 514,0 520,0 520,0 550,0 550,0 556,0 562,-6 562,-12 562,-12 562,-24 562,-24 562,-30 556,-36 550,-36"/>
<text text-anchor="middle" x="535" y="-15.5" font-family="sans" font-size="10.00" fill="#000000">all</text>
</g>
<!-- 1 -->
<g id="node2" class="node">
<title>1</title>
<path fill="none" stroke="#70d856" stroke-width="2" stroke-dasharray="5,2" d="M296.5,-108C296.5,-108 227.5,-108 227.5,-108 221.5,-108 215.5,-102 215.5,-96 215.5,-96 215.5,-84 215.5,-84 215.5,-78 221.5,-72 227.5,-72 227.5,-72 296.5,-72 296.5,-72 302.5,-72 308.5,-78 308.5,-84 308.5,-84 308.5,-96 308.5,-96 308.5,-102 302.5,-108 296.5,-108"/>
<text text-anchor="middle" x="262" y="-87.5" font-family="sans" font-size="10.00" fill="#000000">plot_annotation</text>
</g>
<!-- 1&#45;&gt;0 -->
<g id="edge1" class="edge">
<title>1&#45;&gt;0</title>
<path fill="none" stroke="#c0c0c0" stroke-width="2" d="M308.7356,-74.446C311.5256,-73.598 314.2961,-72.7762 317,-72 380.1465,-53.8726 454.6061,-36.2148 498.1323,-26.261"/>
<polygon fill="#c0c0c0" stroke="#c0c0c0" stroke-width="2" points="499.0085,-29.6512 507.9825,-24.0194 497.4551,-22.8257 499.0085,-29.6512"/>
</g>
<!-- 2 -->
<g id="node3" class="node">
<title>2</title>
<path fill="none" stroke="#afd856" stroke-width="2" stroke-dasharray="5,2" d="M302.5,-180C302.5,-180 221.5,-180 221.5,-180 215.5,-180 209.5,-174 209.5,-168 209.5,-168 209.5,-156 209.5,-156 209.5,-150 215.5,-144 221.5,-144 221.5,-144 302.5,-144 302.5,-144 308.5,-144 314.5,-150 314.5,-156 314.5,-156 314.5,-168 314.5,-168 314.5,-174 308.5,-180 302.5,-180"/>
<text text-anchor="middle" x="262" y="-159.5" font-family="sans" font-size="10.00" fill="#000000">annotate_variants</text>
</g>
<!-- 2&#45;&gt;1 -->
<g id="edge11" class="edge">
<title>2&#45;&gt;1</title>
<path fill="none" stroke="#c0c0c0" stroke-width="2" d="M262,-143.8314C262,-136.131 262,-126.9743 262,-118.4166"/>
<polygon fill="#c0c0c0" stroke="#c0c0c0" stroke-width="2" points="265.5001,-118.4132 262,-108.4133 258.5001,-118.4133 265.5001,-118.4132"/>
</g>
<!-- 9 -->
<g id="node10" class="node">
<title>9</title>
<path fill="none" stroke="#5692d8" stroke-width="2" d="M409.5,-108C409.5,-108 338.5,-108 338.5,-108 332.5,-108 326.5,-102 326.5,-96 326.5,-96 326.5,-84 326.5,-84 326.5,-78 332.5,-72 338.5,-72 338.5,-72 409.5,-72 409.5,-72 415.5,-72 421.5,-78 421.5,-84 421.5,-84 421.5,-96 421.5,-96 421.5,-102 415.5,-108 409.5,-108"/>
<text text-anchor="middle" x="374" y="-87.5" font-family="sans" font-size="10.00" fill="#000000">plot_haplotypes</text>
</g>
<!-- 2&#45;&gt;9 -->
<g id="edge18" class="edge">
<title>2&#45;&gt;9</title>
<path fill="none" stroke="#c0c0c0" stroke-width="2" d="M290.2623,-143.8314C304.4552,-134.7074 321.8282,-123.539 337.0636,-113.7449"/>
<polygon fill="#c0c0c0" stroke="#c0c0c0" stroke-width="2" points="339.2276,-116.5146 345.7467,-108.1628 335.4422,-110.6263 339.2276,-116.5146"/>
</g>
<!-- 12 -->
<g id="node13" class="node">
<title>12</title>
<path fill="none" stroke="#5692d8" stroke-width="2" d="M185.5,-108C185.5,-108 114.5,-108 114.5,-108 108.5,-108 102.5,-102 102.5,-96 102.5,-96 102.5,-84 102.5,-84 102.5,-78 108.5,-72 114.5,-72 114.5,-72 185.5,-72 185.5,-72 191.5,-72 197.5,-78 197.5,-84 197.5,-84 197.5,-96 197.5,-96 197.5,-102 191.5,-108 185.5,-108"/>
<text text-anchor="middle" x="150" y="-87.5" font-family="sans" font-size="10.00" fill="#000000">plot_haplotypes</text>
</g>
<!-- 2&#45;&gt;12 -->
<g id="edge23" class="edge">
<title>2&#45;&gt;12</title>
<path fill="none" stroke="#c0c0c0" stroke-width="2" d="M233.7377,-143.8314C219.5448,-134.7074 202.1718,-123.539 186.9364,-113.7449"/>
<polygon fill="#c0c0c0" stroke="#c0c0c0" stroke-width="2" points="188.5578,-110.6263 178.2533,-108.1628 184.7724,-116.5146 188.5578,-110.6263"/>
</g>
<!-- 3 -->
<g id="node4" class="node">
<title>3</title>
<path fill="none" stroke="#56d8a9" stroke-width="2" stroke-dasharray="5,2" d="M286.5,-324C286.5,-324 237.5,-324 237.5,-324 231.5,-324 225.5,-318 225.5,-312 225.5,-312 225.5,-300 225.5,-300 225.5,-294 231.5,-288 237.5,-288 237.5,-288 286.5,-288 286.5,-288 292.5,-288 298.5,-294 298.5,-300 298.5,-300 298.5,-312 298.5,-312 298.5,-318 292.5,-324 286.5,-324"/>
<text text-anchor="middle" x="262" y="-303.5" font-family="sans" font-size="10.00" fill="#000000">get_dosage</text>
</g>
<!-- 3&#45;&gt;2 -->
<g id="edge12" class="edge">
<title>3&#45;&gt;2</title>
<path fill="none" stroke="#c0c0c0" stroke-width="2" d="M262,-287.7623C262,-263.201 262,-219.2474 262,-190.3541"/>
<polygon fill="#c0c0c0" stroke="#c0c0c0" stroke-width="2" points="265.5001,-190.0896 262,-180.0896 258.5001,-190.0897 265.5001,-190.0896"/>
</g>
<!-- 3&#45;&gt;9 -->
<g id="edge19" class="edge">
<title>3&#45;&gt;9</title>
<path fill="none" stroke="#c0c0c0" stroke-width="2" d="M271.3564,-287.9555C290.9976,-250.0762 336.6242,-162.0818 359.8579,-117.274"/>
<polygon fill="#c0c0c0" stroke="#c0c0c0" stroke-width="2" points="363.0954,-118.6338 364.5914,-108.1451 356.8811,-115.4115 363.0954,-118.6338"/>
</g>
<!-- 11 -->
<g id="node12" class="node">
<title>11</title>
<path fill="none" stroke="#d85656" stroke-width="2" d="M446.5,-252C446.5,-252 387.5,-252 387.5,-252 381.5,-252 375.5,-246 375.5,-240 375.5,-240 375.5,-228 375.5,-228 375.5,-222 381.5,-216 387.5,-216 387.5,-216 446.5,-216 446.5,-216 452.5,-216 458.5,-222 458.5,-228 458.5,-228 458.5,-240 458.5,-240 458.5,-246 452.5,-252 446.5,-252"/>
<text text-anchor="middle" x="417" y="-237" font-family="sans" font-size="10.00" fill="#000000">merge_data</text>
<text text-anchor="middle" x="417" y="-226" font-family="sans" font-size="10.00" fill="#000000">dataset: phen</text>
</g>
<!-- 3&#45;&gt;11 -->
<g id="edge21" class="edge">
<title>3&#45;&gt;11</title>
<path fill="none" stroke="#c0c0c0" stroke-width="2" d="M298.7328,-288.937C319.7409,-279.1784 346.3361,-266.8245 368.9836,-256.3044"/>
<polygon fill="#c0c0c0" stroke="#c0c0c0" stroke-width="2" points="370.5,-259.4592 378.0948,-252.0721 367.551,-253.1107 370.5,-259.4592"/>
</g>
<!-- 3&#45;&gt;12 -->
<g id="edge24" class="edge">
<title>3&#45;&gt;12</title>
<path fill="none" stroke="#c0c0c0" stroke-width="2" d="M252.6436,-287.9555C233.0024,-250.0762 187.3758,-162.0818 164.1421,-117.274"/>
<polygon fill="#c0c0c0" stroke="#c0c0c0" stroke-width="2" points="167.1189,-115.4115 159.4086,-108.1451 160.9046,-118.6338 167.1189,-115.4115"/>
</g>
<!-- 14 -->
<g id="node15" class="node">
<title>14</title>
<path fill="none" stroke="#d85656" stroke-width="2" d="M138,-252C138,-252 76,-252 76,-252 70,-252 64,-246 64,-240 64,-240 64,-228 64,-228 64,-222 70,-216 76,-216 76,-216 138,-216 138,-216 144,-216 150,-222 150,-228 150,-228 150,-240 150,-240 150,-246 144,-252 138,-252"/>
<text text-anchor="middle" x="107" y="-237" font-family="sans" font-size="10.00" fill="#000000">merge_data</text>
<text text-anchor="middle" x="107" y="-226" font-family="sans" font-size="10.00" fill="#000000">dataset: soma</text>
</g>
<!-- 3&#45;&gt;14 -->
<g id="edge26" class="edge">
<title>3&#45;&gt;14</title>
<path fill="none" stroke="#c0c0c0" stroke-width="2" d="M225.2672,-288.937C204.2591,-279.1784 177.6639,-266.8245 155.0164,-256.3044"/>
<polygon fill="#c0c0c0" stroke="#c0c0c0" stroke-width="2" points="156.449,-253.1107 145.9052,-252.0721 153.5,-259.4592 156.449,-253.1107"/>
</g>
<!-- 4 -->
<g id="node5" class="node">
<title>4</title>
<path fill="none" stroke="#56d873" stroke-width="2" stroke-dasharray="5,2" d="M292.5,-396C292.5,-396 231.5,-396 231.5,-396 225.5,-396 219.5,-390 219.5,-384 219.5,-384 219.5,-372 219.5,-372 219.5,-366 225.5,-360 231.5,-360 231.5,-360 292.5,-360 292.5,-360 298.5,-360 304.5,-366 304.5,-372 304.5,-372 304.5,-384 304.5,-384 304.5,-390 298.5,-396 292.5,-396"/>
<text text-anchor="middle" x="262" y="-381" font-family="sans" font-size="10.00" fill="#000000">get_locus</text>
<text text-anchor="middle" x="262" y="-370" font-family="sans" font-size="10.00" fill="#000000">locus: region1</text>
</g>
<!-- 4&#45;&gt;3 -->
<g id="edge13" class="edge">
<title>4&#45;&gt;3</title>
<path fill="none" stroke="#c0c0c0" stroke-width="2" d="M262,-359.8314C262,-352.131 262,-342.9743 262,-334.4166"/>
<polygon fill="#c0c0c0" stroke="#c0c0c0" stroke-width="2" points="265.5001,-334.4132 262,-324.4133 258.5001,-334.4133 265.5001,-334.4132"/>
</g>
<!-- 5 -->
<g id="node6" class="node">
<title>5</title>
<path fill="none" stroke="#70d856" stroke-width="2" stroke-dasharray="5,2" d="M623.5,-108C623.5,-108 554.5,-108 554.5,-108 548.5,-108 542.5,-102 542.5,-96 542.5,-96 542.5,-84 542.5,-84 542.5,-78 548.5,-72 554.5,-72 554.5,-72 623.5,-72 623.5,-72 629.5,-72 635.5,-78 635.5,-84 635.5,-84 635.5,-96 635.5,-96 635.5,-102 629.5,-108 623.5,-108"/>
<text text-anchor="middle" x="589" y="-87.5" font-family="sans" font-size="10.00" fill="#000000">plot_annotation</text>
</g>
<!-- 5&#45;&gt;0 -->
<g id="edge2" class="edge">
<title>5&#45;&gt;0</title>
<path fill="none" stroke="#c0c0c0" stroke-width="2" d="M575.3735,-71.8314C569.154,-63.5386 561.6678,-53.557 554.84,-44.4533"/>
<polygon fill="#c0c0c0" stroke="#c0c0c0" stroke-width="2" points="557.61,-42.3133 548.81,-36.4133 552.01,-46.5133 557.61,-42.3133"/>
</g>
<!-- 6 -->
<g id="node7" class="node">
<title>6</title>
<path fill="none" stroke="#afd856" stroke-width="2" stroke-dasharray="5,2" d="M690.5,-180C690.5,-180 609.5,-180 609.5,-180 603.5,-180 597.5,-174 597.5,-168 597.5,-168 597.5,-156 597.5,-156 597.5,-150 603.5,-144 609.5,-144 609.5,-144 690.5,-144 690.5,-144 696.5,-144 702.5,-150 702.5,-156 702.5,-156 702.5,-168 702.5,-168 702.5,-174 696.5,-180 690.5,-180"/>
<text text-anchor="middle" x="650" y="-159.5" font-family="sans" font-size="10.00" fill="#000000">annotate_variants</text>
</g>
<!-- 6&#45;&gt;5 -->
<g id="edge14" class="edge">
<title>6&#45;&gt;5</title>
<path fill="none" stroke="#c0c0c0" stroke-width="2" d="M634.6071,-143.8314C627.5096,-135.454 618.952,-125.3531 611.176,-116.1749"/>
<polygon fill="#c0c0c0" stroke="#c0c0c0" stroke-width="2" points="613.7348,-113.7807 604.6001,-108.4133 608.3939,-118.3056 613.7348,-113.7807"/>
</g>
<!-- 15 -->
<g id="node16" class="node">
<title>15</title>
<path fill="none" stroke="#5692d8" stroke-width="2" d="M736.5,-108C736.5,-108 665.5,-108 665.5,-108 659.5,-108 653.5,-102 653.5,-96 653.5,-96 653.5,-84 653.5,-84 653.5,-78 659.5,-72 665.5,-72 665.5,-72 736.5,-72 736.5,-72 742.5,-72 748.5,-78 748.5,-84 748.5,-84 748.5,-96 748.5,-96 748.5,-102 742.5,-108 736.5,-108"/>
<text text-anchor="middle" x="701" y="-87.5" font-family="sans" font-size="10.00" fill="#000000">plot_haplotypes</text>
</g>
<!-- 6&#45;&gt;15 -->
<g id="edge28" class="edge">
<title>6&#45;&gt;15</title>
<path fill="none" stroke="#c0c0c0" stroke-width="2" d="M662.8695,-143.8314C668.6835,-135.6232 675.6696,-125.7606 682.0646,-116.7323"/>
<polygon fill="#c0c0c0" stroke="#c0c0c0" stroke-width="2" points="685.0331,-118.5966 687.9573,-108.4133 679.321,-114.5505 685.0331,-118.5966"/>
</g>
<!-- 18 -->
<g id="node19" class="node">
<title>18</title>
<path fill="none" stroke="#5692d8" stroke-width="2" d="M952.5,-108C952.5,-108 881.5,-108 881.5,-108 875.5,-108 869.5,-102 869.5,-96 869.5,-96 869.5,-84 869.5,-84 869.5,-78 875.5,-72 881.5,-72 881.5,-72 952.5,-72 952.5,-72 958.5,-72 964.5,-78 964.5,-84 964.5,-84 964.5,-96 964.5,-96 964.5,-102 958.5,-108 952.5,-108"/>
<text text-anchor="middle" x="917" y="-87.5" font-family="sans" font-size="10.00" fill="#000000">plot_haplotypes</text>
</g>
<!-- 6&#45;&gt;18 -->
<g id="edge33" class="edge">
<title>6&#45;&gt;18</title>
<path fill="none" stroke="#c0c0c0" stroke-width="2" d="M702.8586,-149.2497C743.2073,-139.3254 800.3814,-124.8535 859.571,-108.0484"/>
<polygon fill="#c0c0c0" stroke="#c0c0c0" stroke-width="2" points="860.8182,-111.3323 869.4725,-105.2205 858.8957,-104.6014 860.8182,-111.3323"/>
</g>
<!-- 7 -->
<g id="node8" class="node">
<title>7</title>
<path fill="none" stroke="#56d8a9" stroke-width="2" stroke-dasharray="5,2" d="M833.5,-324C833.5,-324 784.5,-324 784.5,-324 778.5,-324 772.5,-318 772.5,-312 772.5,-312 772.5,-300 772.5,-300 772.5,-294 778.5,-288 784.5,-288 784.5,-288 833.5,-288 833.5,-288 839.5,-288 845.5,-294 845.5,-300 845.5,-300 845.5,-312 845.5,-312 845.5,-318 839.5,-324 833.5,-324"/>
<text text-anchor="middle" x="809" y="-303.5" font-family="sans" font-size="10.00" fill="#000000">get_dosage</text>
</g>
<!-- 7&#45;&gt;6 -->
<g id="edge15" class="edge">
<title>7&#45;&gt;6</title>
<path fill="none" stroke="#c0c0c0" stroke-width="2" d="M772.2564,-288.7961C754.4443,-279.4133 733.411,-266.7107 717,-252 696.4643,-233.592 678.1506,-208.018 665.882,-188.8342"/>
<polygon fill="#c0c0c0" stroke="#c0c0c0" stroke-width="2" points="668.7893,-186.8818 660.5232,-180.2545 662.8522,-190.5901 668.7893,-186.8818"/>
</g>
<!-- 7&#45;&gt;15 -->
<g id="edge29" class="edge">
<title>7&#45;&gt;15</title>
<path fill="none" stroke="#c0c0c0" stroke-width="2" d="M788.1874,-287.9014C777.9612,-278.1142 766.1234,-265.3218 758,-252 731.6677,-208.8166 715.2044,-151.728 707.0935,-118.1256"/>
<polygon fill="#c0c0c0" stroke="#c0c0c0" stroke-width="2" points="710.4323,-117.0316 704.7517,-108.0884 703.6154,-118.6221 710.4323,-117.0316"/>
</g>
<!-- 17 -->
<g id="node18" class="node">
<title>17</title>
<path fill="none" stroke="#d85656" stroke-width="2" d="M838.5,-252C838.5,-252 779.5,-252 779.5,-252 773.5,-252 767.5,-246 767.5,-240 767.5,-240 767.5,-228 767.5,-228 767.5,-222 773.5,-216 779.5,-216 779.5,-216 838.5,-216 838.5,-216 844.5,-216 850.5,-222 850.5,-228 850.5,-228 850.5,-240 850.5,-240 850.5,-246 844.5,-252 838.5,-252"/>
<text text-anchor="middle" x="809" y="-237" font-family="sans" font-size="10.00" fill="#000000">merge_data</text>
<text text-anchor="middle" x="809" y="-226" font-family="sans" font-size="10.00" fill="#000000">dataset: phen</text>
</g>
<!-- 7&#45;&gt;17 -->
<g id="edge31" class="edge">
<title>7&#45;&gt;17</title>
<path fill="none" stroke="#c0c0c0" stroke-width="2" d="M809,-287.8314C809,-280.131 809,-270.9743 809,-262.4166"/>
<polygon fill="#c0c0c0" stroke="#c0c0c0" stroke-width="2" points="812.5001,-262.4132 809,-252.4133 805.5001,-262.4133 812.5001,-262.4132"/>
</g>
<!-- 7&#45;&gt;18 -->
<g id="edge34" class="edge">
<title>7&#45;&gt;18</title>
<path fill="none" stroke="#c0c0c0" stroke-width="2" d="M829.6067,-287.5701C839.5632,-277.7922 851.0466,-265.1078 859,-252 885.2884,-208.6746 902.2051,-151.6322 910.6269,-118.0771"/>
<polygon fill="#c0c0c0" stroke="#c0c0c0" stroke-width="2" points="914.1019,-118.5989 913.0639,-108.0551 907.3001,-116.9449 914.1019,-118.5989"/>
</g>
<!-- 20 -->
<g id="node21" class="node">
<title>20</title>
<path fill="none" stroke="#d85656" stroke-width="2" d="M992,-252C992,-252 930,-252 930,-252 924,-252 918,-246 918,-240 918,-240 918,-228 918,-228 918,-222 924,-216 930,-216 930,-216 992,-216 992,-216 998,-216 1004,-222 1004,-228 1004,-228 1004,-240 1004,-240 1004,-246 998,-252 992,-252"/>
<text text-anchor="middle" x="961" y="-237" font-family="sans" font-size="10.00" fill="#000000">merge_data</text>
<text text-anchor="middle" x="961" y="-226" font-family="sans" font-size="10.00" fill="#000000">dataset: soma</text>
</g>
<!-- 7&#45;&gt;20 -->
<g id="edge36" class="edge">
<title>7&#45;&gt;20</title>
<path fill="none" stroke="#c0c0c0" stroke-width="2" d="M845.795,-288.5708C866.2446,-278.8841 891.9092,-266.7272 913.8214,-256.3477"/>
<polygon fill="#c0c0c0" stroke="#c0c0c0" stroke-width="2" points="915.4175,-259.4646 922.9565,-252.0206 912.4208,-253.1384 915.4175,-259.4646"/>
</g>
<!-- 8 -->
<g id="node9" class="node">
<title>8</title>
<path fill="none" stroke="#56d873" stroke-width="2" stroke-dasharray="5,2" d="M839.5,-396C839.5,-396 778.5,-396 778.5,-396 772.5,-396 766.5,-390 766.5,-384 766.5,-384 766.5,-372 766.5,-372 766.5,-366 772.5,-360 778.5,-360 778.5,-360 839.5,-360 839.5,-360 845.5,-360 851.5,-366 851.5,-372 851.5,-372 851.5,-384 851.5,-384 851.5,-390 845.5,-396 839.5,-396"/>
<text text-anchor="middle" x="809" y="-381" font-family="sans" font-size="10.00" fill="#000000">get_locus</text>
<text text-anchor="middle" x="809" y="-370" font-family="sans" font-size="10.00" fill="#000000">locus: region2</text>
</g>
<!-- 8&#45;&gt;7 -->
<g id="edge16" class="edge">
<title>8&#45;&gt;7</title>
<path fill="none" stroke="#c0c0c0" stroke-width="2" d="M809,-359.8314C809,-352.131 809,-342.9743 809,-334.4166"/>
<polygon fill="#c0c0c0" stroke="#c0c0c0" stroke-width="2" points="812.5001,-334.4132 809,-324.4133 805.5001,-334.4133 812.5001,-334.4132"/>
</g>
<!-- 9&#45;&gt;0 -->
<g id="edge3" class="edge">
<title>9&#45;&gt;0</title>
<path fill="none" stroke="#c0c0c0" stroke-width="2" d="M414.6271,-71.8314C440.3988,-60.3061 473.4648,-45.5188 498.4177,-34.3598"/>
<polygon fill="#c0c0c0" stroke="#c0c0c0" stroke-width="2" points="499.8518,-37.5525 507.5517,-30.275 496.9941,-31.1624 499.8518,-37.5525"/>
</g>
<!-- 10 -->
<g id="node11" class="node">
<title>10</title>
<path fill="none" stroke="#d88d56" stroke-width="2" d="M459,-180C459,-180 383,-180 383,-180 377,-180 371,-174 371,-168 371,-168 371,-156 371,-156 371,-150 377,-144 383,-144 383,-144 459,-144 459,-144 465,-144 471,-150 471,-156 471,-156 471,-168 471,-168 471,-174 465,-180 459,-180"/>
<text text-anchor="middle" x="421" y="-159.5" font-family="sans" font-size="10.00" fill="#000000">build_haplotypes</text>
</g>
<!-- 10&#45;&gt;9 -->
<g id="edge17" class="edge">
<title>10&#45;&gt;9</title>
<path fill="none" stroke="#c0c0c0" stroke-width="2" d="M409.1399,-143.8314C403.8371,-135.7079 397.4763,-125.9637 391.6327,-117.0118"/>
<polygon fill="#c0c0c0" stroke="#c0c0c0" stroke-width="2" points="394.4169,-114.8739 386.0198,-108.4133 388.5552,-118.7003 394.4169,-114.8739"/>
</g>
<!-- 21 -->
<g id="node22" class="node">
<title>21</title>
<path fill="none" stroke="#56c9d8" stroke-width="2" d="M512,-108C512,-108 452,-108 452,-108 446,-108 440,-102 440,-96 440,-96 440,-84 440,-84 440,-78 446,-72 452,-72 452,-72 512,-72 512,-72 518,-72 524,-78 524,-84 524,-84 524,-96 524,-96 524,-102 518,-108 512,-108"/>
<text text-anchor="middle" x="482" y="-87.5" font-family="sans" font-size="10.00" fill="#000000">plot_heatmap</text>
</g>
<!-- 10&#45;&gt;21 -->
<g id="edge37" class="edge">
<title>10&#45;&gt;21</title>
<path fill="none" stroke="#c0c0c0" stroke-width="2" d="M436.3929,-143.8314C443.4904,-135.454 452.048,-125.3531 459.824,-116.1749"/>
<polygon fill="#c0c0c0" stroke="#c0c0c0" stroke-width="2" points="462.6061,-118.3056 466.3999,-108.4133 457.2652,-113.7807 462.6061,-118.3056"/>
</g>
<!-- 11&#45;&gt;10 -->
<g id="edge20" class="edge">
<title>11&#45;&gt;10</title>
<path fill="none" stroke="#c0c0c0" stroke-width="2" d="M418.0094,-215.8314C418.4372,-208.131 418.9459,-198.9743 419.4213,-190.4166"/>
<polygon fill="#c0c0c0" stroke="#c0c0c0" stroke-width="2" points="422.9169,-190.592 419.977,-180.4133 415.9276,-190.2037 422.9169,-190.592"/>
</g>
<!-- 12&#45;&gt;0 -->
<g id="edge4" class="edge">
<title>12&#45;&gt;0</title>
<path fill="none" stroke="#c0c0c0" stroke-width="2" d="M197.5224,-74.1954C200.379,-73.4104 203.2204,-72.6709 206,-72 310.5172,-46.7726 436.5763,-29.7244 497.8877,-22.2679"/>
<polygon fill="#c0c0c0" stroke="#c0c0c0" stroke-width="2" points="498.3503,-25.7376 507.8617,-21.0704 497.5158,-18.7875 498.3503,-25.7376"/>
</g>
<!-- 13 -->
<g id="node14" class="node">
<title>13</title>
<path fill="none" stroke="#d88d56" stroke-width="2" d="M141,-180C141,-180 65,-180 65,-180 59,-180 53,-174 53,-168 53,-168 53,-156 53,-156 53,-150 59,-144 65,-144 65,-144 141,-144 141,-144 147,-144 153,-150 153,-156 153,-156 153,-168 153,-168 153,-174 147,-180 141,-180"/>
<text text-anchor="middle" x="103" y="-159.5" font-family="sans" font-size="10.00" fill="#000000">build_haplotypes</text>
</g>
<!-- 13&#45;&gt;12 -->
<g id="edge22" class="edge">
<title>13&#45;&gt;12</title>
<path fill="none" stroke="#c0c0c0" stroke-width="2" d="M114.8601,-143.8314C120.1629,-135.7079 126.5237,-125.9637 132.3673,-117.0118"/>
<polygon fill="#c0c0c0" stroke="#c0c0c0" stroke-width="2" points="135.4448,-118.7003 137.9802,-108.4133 129.5831,-114.8739 135.4448,-118.7003"/>
</g>
<!-- 22 -->
<g id="node23" class="node">
<title>22</title>
<path fill="none" stroke="#56c9d8" stroke-width="2" d="M72,-108C72,-108 12,-108 12,-108 6,-108 0,-102 0,-96 0,-96 0,-84 0,-84 0,-78 6,-72 12,-72 12,-72 72,-72 72,-72 78,-72 84,-78 84,-84 84,-84 84,-96 84,-96 84,-102 78,-108 72,-108"/>
<text text-anchor="middle" x="42" y="-87.5" font-family="sans" font-size="10.00" fill="#000000">plot_heatmap</text>
</g>
<!-- 13&#45;&gt;22 -->
<g id="edge38" class="edge">
<title>13&#45;&gt;22</title>
<path fill="none" stroke="#c0c0c0" stroke-width="2" d="M87.6071,-143.8314C80.5096,-135.454 71.952,-125.3531 64.176,-116.1749"/>
<polygon fill="#c0c0c0" stroke="#c0c0c0" stroke-width="2" points="66.7348,-113.7807 57.6001,-108.4133 61.3939,-118.3056 66.7348,-113.7807"/>
</g>
<!-- 14&#45;&gt;13 -->
<g id="edge25" class="edge">
<title>14&#45;&gt;13</title>
<path fill="none" stroke="#c0c0c0" stroke-width="2" d="M105.9906,-215.8314C105.5628,-208.131 105.0541,-198.9743 104.5787,-190.4166"/>
<polygon fill="#c0c0c0" stroke="#c0c0c0" stroke-width="2" points="108.0724,-190.2037 104.023,-180.4133 101.0831,-190.592 108.0724,-190.2037"/>
</g>
<!-- 15&#45;&gt;0 -->
<g id="edge5" class="edge">
<title>15&#45;&gt;0</title>
<path fill="none" stroke="#c0c0c0" stroke-width="2" d="M659.1112,-71.8314C632.1985,-60.1584 597.5708,-45.1391 571.7331,-33.9324"/>
<polygon fill="#c0c0c0" stroke="#c0c0c0" stroke-width="2" points="572.8622,-30.6072 562.2953,-29.8389 570.0768,-37.0291 572.8622,-30.6072"/>
</g>
<!-- 16 -->
<g id="node17" class="node">
<title>16</title>
<path fill="none" stroke="#d88d56" stroke-width="2" d="M847,-180C847,-180 771,-180 771,-180 765,-180 759,-174 759,-168 759,-168 759,-156 759,-156 759,-150 765,-144 771,-144 771,-144 847,-144 847,-144 853,-144 859,-150 859,-156 859,-156 859,-168 859,-168 859,-174 853,-180 847,-180"/>
<text text-anchor="middle" x="809" y="-159.5" font-family="sans" font-size="10.00" fill="#000000">build_haplotypes</text>
</g>
<!-- 16&#45;&gt;15 -->
<g id="edge27" class="edge">
<title>16&#45;&gt;15</title>
<path fill="none" stroke="#c0c0c0" stroke-width="2" d="M781.747,-143.8314C768.0611,-134.7074 751.3085,-123.539 736.6173,-113.7449"/>
<polygon fill="#c0c0c0" stroke="#c0c0c0" stroke-width="2" points="738.5062,-110.7977 728.2442,-108.1628 734.6233,-116.6221 738.5062,-110.7977"/>
</g>
<!-- 23 -->
<g id="node24" class="node">
<title>23</title>
<path fill="none" stroke="#56c9d8" stroke-width="2" d="M839,-108C839,-108 779,-108 779,-108 773,-108 767,-102 767,-96 767,-96 767,-84 767,-84 767,-78 773,-72 779,-72 779,-72 839,-72 839,-72 845,-72 851,-78 851,-84 851,-84 851,-96 851,-96 851,-102 845,-108 839,-108"/>
<text text-anchor="middle" x="809" y="-87.5" font-family="sans" font-size="10.00" fill="#000000">plot_heatmap</text>
</g>
<!-- 16&#45;&gt;23 -->
<g id="edge39" class="edge">
<title>16&#45;&gt;23</title>
<path fill="none" stroke="#c0c0c0" stroke-width="2" d="M809,-143.8314C809,-136.131 809,-126.9743 809,-118.4166"/>
<polygon fill="#c0c0c0" stroke="#c0c0c0" stroke-width="2" points="812.5001,-118.4132 809,-108.4133 805.5001,-118.4133 812.5001,-118.4132"/>
</g>
<!-- 17&#45;&gt;16 -->
<g id="edge30" class="edge">
<title>17&#45;&gt;16</title>
<path fill="none" stroke="#c0c0c0" stroke-width="2" d="M809,-215.8314C809,-208.131 809,-198.9743 809,-190.4166"/>
<polygon fill="#c0c0c0" stroke="#c0c0c0" stroke-width="2" points="812.5001,-190.4132 809,-180.4133 805.5001,-190.4133 812.5001,-190.4132"/>
</g>
<!-- 18&#45;&gt;0 -->
<g id="edge6" class="edge">
<title>18&#45;&gt;0</title>
<path fill="none" stroke="#c0c0c0" stroke-width="2" d="M869.2434,-74.3804C866.1282,-73.5285 863.0275,-72.7257 860,-72 757.1567,-47.3481 633.3334,-30.1368 572.4852,-22.4778"/>
<polygon fill="#c0c0c0" stroke="#c0c0c0" stroke-width="2" points="572.5797,-18.9627 562.2242,-21.202 571.7159,-25.9092 572.5797,-18.9627"/>
</g>
<!-- 19 -->
<g id="node20" class="node">
<title>19</title>
<path fill="none" stroke="#d88d56" stroke-width="2" d="M1003,-180C1003,-180 927,-180 927,-180 921,-180 915,-174 915,-168 915,-168 915,-156 915,-156 915,-150 921,-144 927,-144 927,-144 1003,-144 1003,-144 1009,-144 1015,-150 1015,-156 1015,-156 1015,-168 1015,-168 1015,-174 1009,-180 1003,-180"/>
<text text-anchor="middle" x="965" y="-159.5" font-family="sans" font-size="10.00" fill="#000000">build_haplotypes</text>
</g>
<!-- 19&#45;&gt;18 -->
<g id="edge32" class="edge">
<title>19&#45;&gt;18</title>
<path fill="none" stroke="#c0c0c0" stroke-width="2" d="M952.8876,-143.8314C947.4719,-135.7079 940.9758,-125.9637 935.0079,-117.0118"/>
<polygon fill="#c0c0c0" stroke="#c0c0c0" stroke-width="2" points="937.7347,-114.7923 929.2755,-108.4133 931.9104,-118.6753 937.7347,-114.7923"/>
</g>
<!-- 24 -->
<g id="node25" class="node">
<title>24</title>
<path fill="none" stroke="#56c9d8" stroke-width="2" d="M1055,-108C1055,-108 995,-108 995,-108 989,-108 983,-102 983,-96 983,-96 983,-84 983,-84 983,-78 989,-72 995,-72 995,-72 1055,-72 1055,-72 1061,-72 1067,-78 1067,-84 1067,-84 1067,-96 1067,-96 1067,-102 1061,-108 1055,-108"/>
<text text-anchor="middle" x="1025" y="-87.5" font-family="sans" font-size="10.00" fill="#000000">plot_heatmap</text>
</g>
<!-- 19&#45;&gt;24 -->
<g id="edge40" class="edge">
<title>19&#45;&gt;24</title>
<path fill="none" stroke="#c0c0c0" stroke-width="2" d="M980.1405,-143.8314C987.1217,-135.454 995.5391,-125.3531 1003.1876,-116.1749"/>
<polygon fill="#c0c0c0" stroke="#c0c0c0" stroke-width="2" points="1005.9425,-118.3362 1009.6556,-108.4133 1000.5649,-113.8548 1005.9425,-118.3362"/>
</g>
<!-- 20&#45;&gt;19 -->
<g id="edge35" class="edge">
<title>20&#45;&gt;19</title>
<path fill="none" stroke="#c0c0c0" stroke-width="2" d="M962.0094,-215.8314C962.4372,-208.131 962.9459,-198.9743 963.4213,-190.4166"/>
<polygon fill="#c0c0c0" stroke="#c0c0c0" stroke-width="2" points="966.9169,-190.592 963.977,-180.4133 959.9276,-190.2037 966.9169,-190.592"/>
</g>
<!-- 21&#45;&gt;0 -->
<g id="edge7" class="edge">
<title>21&#45;&gt;0</title>
<path fill="none" stroke="#c0c0c0" stroke-width="2" d="M495.3741,-71.8314C501.4162,-63.6232 508.6763,-53.7606 515.3221,-44.7323"/>
<polygon fill="#c0c0c0" stroke="#c0c0c0" stroke-width="2" points="518.3363,-46.5415 521.4458,-36.4133 512.6989,-42.3918 518.3363,-46.5415"/>
</g>
<!-- 22&#45;&gt;0 -->
<g id="edge8" class="edge">
<title>22&#45;&gt;0</title>
<path fill="none" stroke="#c0c0c0" stroke-width="2" d="M84.0898,-74.3497C87.084,-73.4822 90.0748,-72.6862 93,-72 240.5385,-37.3878 421.2954,-24.1201 497.8866,-19.8034"/>
<polygon fill="#c0c0c0" stroke="#c0c0c0" stroke-width="2" points="498.1938,-23.292 507.9883,-19.2525 497.8125,-16.3024 498.1938,-23.292"/>
</g>
<!-- 23&#45;&gt;0 -->
<g id="edge9" class="edge">
<title>23&#45;&gt;0</title>
<path fill="none" stroke="#c0c0c0" stroke-width="2" d="M766.8223,-75.0259C763.5107,-73.9647 760.2079,-72.9431 757,-72 692.704,-53.0981 616.5787,-35.625 572.244,-25.9279"/>
<polygon fill="#c0c0c0" stroke="#c0c0c0" stroke-width="2" points="572.7318,-22.4522 562.2167,-23.7488 571.2453,-29.2926 572.7318,-22.4522"/>
</g>
<!-- 24&#45;&gt;0 -->
<g id="edge10" class="edge">
<title>24&#45;&gt;0</title>
<path fill="none" stroke="#c0c0c0" stroke-width="2" d="M982.9324,-74.6068C979.5957,-73.6411 976.2572,-72.7556 973,-72 826.8707,-38.0996 648.063,-24.4675 572.0381,-19.9304"/>
<polygon fill="#c0c0c0" stroke="#c0c0c0" stroke-width="2" points="572.1925,-16.4336 562.0069,-19.3494 571.7877,-23.4219 572.1925,-16.4336"/>
</g>
</g>
</svg>
