<?xml version="1.0" encoding="UTF-8" standalone="no"?>
<!DOCTYPE svg PUBLIC "-//W3C//DTD SVG 1.1//EN"
 "http://www.w3.org/Graphics/SVG/1.1/DTD/svg11.dtd">
<!-- Generated by graphviz version 2.40.1 (0)
 -->
<!-- Title: snakemake_dag Pages: 1 -->
<svg width="1076pt" height="404pt"
 viewBox="0.00 0.00 1075.50 404.00" xmlns="http://www.w3.org/2000/svg" xmlns:xlink="http://www.w3.org/1999/xlink">
<g id="graph0" class="graph" transform="scale(1 1) rotate(0) translate(4 400)">
<title>snakemake_dag</title>
<polygon fill="#ffffff" stroke="transparent" points="-4,4 -4,-400 1071.5,-400 1071.5,4 -4,4"/>
<!-- 0 -->
<g id="node1" class="node">
<title>0</title>
<path fill="none" stroke="#70d856" stroke-width="2" d="M554.5,-36C554.5,-36 524.5,-36 524.5,-36 518.5,-36 512.5,-30 512.5,-24 512.5,-24 512.5,-12 512.5,-12 512.5,-6 518.5,0 524.5,0 524.5,0 554.5,0 554.5,0 560.5,0 566.5,-6 566.5,-12 566.5,-12 566.5,-24 566.5,-24 566.5,-30 560.5,-36 554.5,-36"/>
<text text-anchor="middle" x="539.5" y="-15.5" font-family="sans" font-size="10.00" fill="#000000">all</text>
</g>
<!-- 1 -->
<g id="node2" class="node">
<title>1</title>
<path fill="none" stroke="#d88d56" stroke-width="2" stroke-dasharray="5,2" d="M81,-108C81,-108 12,-108 12,-108 6,-108 0,-102 0,-96 0,-96 0,-84 0,-84 0,-78 6,-72 12,-72 12,-72 81,-72 81,-72 87,-72 93,-78 93,-84 93,-84 93,-96 93,-96 93,-102 87,-108 81,-108"/>
<text text-anchor="middle" x="46.5" y="-93" font-family="sans" font-size="10.00" fill="#000000">plot_annotation</text>
<text text-anchor="middle" x="46.5" y="-82" font-family="sans" font-size="10.00" fill="#000000">locus: region1</text>
</g>
<!-- 1&#45;&gt;0 -->
<g id="edge1" class="edge">
<title>1&#45;&gt;0</title>
<path fill="none" stroke="#c0c0c0" stroke-width="2" d="M93.1364,-74.0564C95.9513,-73.3063 98.7543,-72.6125 101.5,-72 247.7329,-39.3797 426.134,-25.0858 502.2305,-20.1542"/>
<polygon fill="#c0c0c0" stroke="#c0c0c0" stroke-width="2" points="502.5157,-23.6433 512.2751,-19.5196 502.0742,-16.6572 502.5157,-23.6433"/>
</g>
<!-- 2 -->
<g id="node3" class="node">
<title>2</title>
<path fill="none" stroke="#56c9d8" stroke-width="2" stroke-dasharray="5,2" d="M452,-324C452,-324 403,-324 403,-324 397,-324 391,-318 391,-312 391,-312 391,-300 391,-300 391,-294 397,-288 403,-288 403,-288 452,-288 452,-288 458,-288 464,-294 464,-300 464,-300 464,-312 464,-312 464,-318 458,-324 452,-324"/>
<text text-anchor="middle" x="427.5" y="-303.5" font-family="sans" font-size="10.00" fill="#000000">get_dosage</text>
</g>
<!-- 9 -->
<g id="node10" class="node">
<title>9</title>
<path fill="none" stroke="#d85656" stroke-width="2" d="M406,-252C406,-252 347,-252 347,-252 341,-252 335,-246 335,-240 335,-240 335,-228 335,-228 335,-222 341,-216 347,-216 347,-216 406,-216 406,-216 412,-216 418,-222 418,-228 418,-228 418,-240 418,-240 418,-246 412,-252 406,-252"/>
<text text-anchor="middle" x="376.5" y="-237" font-family="sans" font-size="10.00" fill="#000000">merge_data</text>
<text text-anchor="middle" x="376.5" y="-226" font-family="sans" font-size="10.00" fill="#000000">dataset: phen</text>
</g>
<!-- 2&#45;&gt;9 -->
<g id="edge15" class="edge">
<title>2&#45;&gt;9</title>
<path fill="none" stroke="#c0c0c0" stroke-width="2" d="M414.6305,-287.8314C408.8165,-279.6232 401.8304,-269.7606 395.4354,-260.7323"/>
<polygon fill="#c0c0c0" stroke="#c0c0c0" stroke-width="2" points="398.179,-258.5505 389.5427,-252.4133 392.4669,-262.5966 398.179,-258.5505"/>
</g>
<!-- 12 -->
<g id="node13" class="node">
<title>12</title>
<path fill="none" stroke="#d85656" stroke-width="2" d="M514.5,-252C514.5,-252 452.5,-252 452.5,-252 446.5,-252 440.5,-246 440.5,-240 440.5,-240 440.5,-228 440.5,-228 440.5,-222 446.5,-216 452.5,-216 452.5,-216 514.5,-216 514.5,-216 520.5,-216 526.5,-222 526.5,-228 526.5,-228 526.5,-240 526.5,-240 526.5,-246 520.5,-252 514.5,-252"/>
<text text-anchor="middle" x="483.5" y="-237" font-family="sans" font-size="10.00" fill="#000000">merge_data</text>
<text text-anchor="middle" x="483.5" y="-226" font-family="sans" font-size="10.00" fill="#000000">dataset: soma</text>
</g>
<!-- 2&#45;&gt;12 -->
<g id="edge18" class="edge">
<title>2&#45;&gt;12</title>
<path fill="none" stroke="#c0c0c0" stroke-width="2" d="M441.6312,-287.8314C448.0811,-279.5386 455.8445,-269.557 462.9252,-260.4533"/>
<polygon fill="#c0c0c0" stroke="#c0c0c0" stroke-width="2" points="465.8019,-262.4556 469.1786,-252.4133 460.2764,-258.158 465.8019,-262.4556"/>
</g>
<!-- 3 -->
<g id="node4" class="node">
<title>3</title>
<path fill="none" stroke="#56d8a9" stroke-width="2" stroke-dasharray="5,2" d="M458,-396C458,-396 397,-396 397,-396 391,-396 385,-390 385,-384 385,-384 385,-372 385,-372 385,-366 391,-360 397,-360 397,-360 458,-360 458,-360 464,-360 470,-366 470,-372 470,-372 470,-384 470,-384 470,-390 464,-396 458,-396"/>
<text text-anchor="middle" x="427.5" y="-381" font-family="sans" font-size="10.00" fill="#000000">get_locus</text>
<text text-anchor="middle" x="427.5" y="-370" font-family="sans" font-size="10.00" fill="#000000">locus: region1</text>
</g>
<!-- 3&#45;&gt;2 -->
<g id="edge11" class="edge">
<title>3&#45;&gt;2</title>
<path fill="none" stroke="#c0c0c0" stroke-width="2" d="M427.5,-359.8314C427.5,-352.131 427.5,-342.9743 427.5,-334.4166"/>
<polygon fill="#c0c0c0" stroke="#c0c0c0" stroke-width="2" points="431.0001,-334.4132 427.5,-324.4133 424.0001,-334.4133 431.0001,-334.4132"/>
</g>
<!-- 4 -->
<g id="node5" class="node">
<title>4</title>
<path fill="none" stroke="#d88d56" stroke-width="2" stroke-dasharray="5,2" d="M192,-108C192,-108 123,-108 123,-108 117,-108 111,-102 111,-96 111,-96 111,-84 111,-84 111,-78 117,-72 123,-72 123,-72 192,-72 192,-72 198,-72 204,-78 204,-84 204,-84 204,-96 204,-96 204,-102 198,-108 192,-108"/>
<text text-anchor="middle" x="157.5" y="-93" font-family="sans" font-size="10.00" fill="#000000">plot_annotation</text>
<text text-anchor="middle" x="157.5" y="-82" font-family="sans" font-size="10.00" fill="#000000">locus: region2</text>
</g>
<!-- 4&#45;&gt;0 -->
<g id="edge2" class="edge">
<title>4&#45;&gt;0</title>
<path fill="none" stroke="#c0c0c0" stroke-width="2" d="M204.1676,-74.19C206.9747,-73.4063 209.7675,-72.6686 212.5,-72 316.0553,-46.6612 441.0028,-29.7142 502.1326,-22.2848"/>
<polygon fill="#c0c0c0" stroke="#c0c0c0" stroke-width="2" points="502.5727,-25.7572 512.0847,-21.0912 501.739,-18.807 502.5727,-25.7572"/>
</g>
<!-- 5 -->
<g id="node6" class="node">
<title>5</title>
<path fill="none" stroke="#56c9d8" stroke-width="2" stroke-dasharray="5,2" d="M888,-324C888,-324 839,-324 839,-324 833,-324 827,-318 827,-312 827,-312 827,-300 827,-300 827,-294 833,-288 839,-288 839,-288 888,-288 888,-288 894,-288 900,-294 900,-300 900,-300 900,-312 900,-312 900,-318 894,-324 888,-324"/>
<text text-anchor="middle" x="863.5" y="-303.5" font-family="sans" font-size="10.00" fill="#000000">get_dosage</text>
</g>
<!-- 15 -->
<g id="node16" class="node">
<title>15</title>
<path fill="none" stroke="#d85656" stroke-width="2" d="M838,-252C838,-252 779,-252 779,-252 773,-252 767,-246 767,-240 767,-240 767,-228 767,-228 767,-222 773,-216 779,-216 779,-216 838,-216 838,-216 844,-216 850,-222 850,-228 850,-228 850,-240 850,-240 850,-246 844,-252 838,-252"/>
<text text-anchor="middle" x="808.5" y="-237" font-family="sans" font-size="10.00" fill="#000000">merge_data</text>
<text text-anchor="middle" x="808.5" y="-226" font-family="sans" font-size="10.00" fill="#000000">dataset: phen</text>
</g>
<!-- 5&#45;&gt;15 -->
<g id="edge21" class="edge">
<title>5&#45;&gt;15</title>
<path fill="none" stroke="#c0c0c0" stroke-width="2" d="M849.6212,-287.8314C843.2864,-279.5386 835.6616,-269.557 828.7074,-260.4533"/>
<polygon fill="#c0c0c0" stroke="#c0c0c0" stroke-width="2" points="831.4175,-258.2353 822.5657,-252.4133 825.8548,-262.4847 831.4175,-258.2353"/>
</g>
<!-- 18 -->
<g id="node19" class="node">
<title>18</title>
<path fill="none" stroke="#d85656" stroke-width="2" d="M949.5,-252C949.5,-252 887.5,-252 887.5,-252 881.5,-252 875.5,-246 875.5,-240 875.5,-240 875.5,-228 875.5,-228 875.5,-222 881.5,-216 887.5,-216 887.5,-216 949.5,-216 949.5,-216 955.5,-216 961.5,-222 961.5,-228 961.5,-228 961.5,-240 961.5,-240 961.5,-246 955.5,-252 949.5,-252"/>
<text text-anchor="middle" x="918.5" y="-237" font-family="sans" font-size="10.00" fill="#000000">merge_data</text>
<text text-anchor="middle" x="918.5" y="-226" font-family="sans" font-size="10.00" fill="#000000">dataset: soma</text>
</g>
<!-- 5&#45;&gt;18 -->
<g id="edge24" class="edge">
<title>5&#45;&gt;18</title>
<path fill="none" stroke="#c0c0c0" stroke-width="2" d="M877.3788,-287.8314C883.7136,-279.5386 891.3384,-269.557 898.2926,-260.4533"/>
<polygon fill="#c0c0c0" stroke="#c0c0c0" stroke-width="2" points="901.1452,-262.4847 904.4343,-252.4133 895.5825,-258.2353 901.1452,-262.4847"/>
</g>
<!-- 6 -->
<g id="node7" class="node">
<title>6</title>
<path fill="none" stroke="#56d8a9" stroke-width="2" stroke-dasharray="5,2" d="M894,-396C894,-396 833,-396 833,-396 827,-396 821,-390 821,-384 821,-384 821,-372 821,-372 821,-366 827,-360 833,-360 833,-360 894,-360 894,-360 900,-360 906,-366 906,-372 906,-372 906,-384 906,-384 906,-390 900,-396 894,-396"/>
<text text-anchor="middle" x="863.5" y="-381" font-family="sans" font-size="10.00" fill="#000000">get_locus</text>
<text text-anchor="middle" x="863.5" y="-370" font-family="sans" font-size="10.00" fill="#000000">locus: region2</text>
</g>
<!-- 6&#45;&gt;5 -->
<g id="edge12" class="edge">
<title>6&#45;&gt;5</title>
<path fill="none" stroke="#c0c0c0" stroke-width="2" d="M863.5,-359.8314C863.5,-352.131 863.5,-342.9743 863.5,-334.4166"/>
<polygon fill="#c0c0c0" stroke="#c0c0c0" stroke-width="2" points="867.0001,-334.4132 863.5,-324.4133 860.0001,-334.4133 867.0001,-334.4132"/>
</g>
<!-- 7 -->
<g id="node8" class="node">
<title>7</title>
<path fill="none" stroke="#56d873" stroke-width="2" d="M305,-108C305,-108 234,-108 234,-108 228,-108 222,-102 222,-96 222,-96 222,-84 222,-84 222,-78 228,-72 234,-72 234,-72 305,-72 305,-72 311,-72 317,-78 317,-84 317,-84 317,-96 317,-96 317,-102 311,-108 305,-108"/>
<text text-anchor="middle" x="269.5" y="-87.5" font-family="sans" font-size="10.00" fill="#000000">plot_haplotypes</text>
</g>
<!-- 7&#45;&gt;0 -->
<g id="edge3" class="edge">
<title>7&#45;&gt;0</title>
<path fill="none" stroke="#c0c0c0" stroke-width="2" d="M317.0241,-74.7673C320.2249,-73.8109 323.4057,-72.88 326.5,-72 387.857,-54.5501 459.9341,-36.8574 502.5499,-26.6839"/>
<polygon fill="#c0c0c0" stroke="#c0c0c0" stroke-width="2" points="503.5491,-30.044 512.4679,-24.3251 501.9294,-23.2339 503.5491,-30.044"/>
</g>
<!-- 8 -->
<g id="node9" class="node">
<title>8</title>
<path fill="none" stroke="#5692d8" stroke-width="2" d="M410.5,-180C410.5,-180 334.5,-180 334.5,-180 328.5,-180 322.5,-174 322.5,-168 322.5,-168 322.5,-156 322.5,-156 322.5,-150 328.5,-144 334.5,-144 334.5,-144 410.5,-144 410.5,-144 416.5,-144 422.5,-150 422.5,-156 422.5,-156 422.5,-168 422.5,-168 422.5,-174 416.5,-180 410.5,-180"/>
<text text-anchor="middle" x="372.5" y="-159.5" font-family="sans" font-size="10.00" fill="#000000">build_haplotypes</text>
</g>
<!-- 8&#45;&gt;7 -->
<g id="edge13" class="edge">
<title>8&#45;&gt;7</title>
<path fill="none" stroke="#c0c0c0" stroke-width="2" d="M346.5088,-143.8314C333.5784,-134.7927 317.7778,-123.7476 303.8617,-114.0198"/>
<polygon fill="#c0c0c0" stroke="#c0c0c0" stroke-width="2" points="305.6843,-111.0235 295.4829,-108.1628 301.6737,-116.7608 305.6843,-111.0235"/>
</g>
<!-- 19 -->
<g id="node20" class="node">
<title>19</title>
<path fill="none" stroke="#afd856" stroke-width="2" d="M407.5,-108C407.5,-108 347.5,-108 347.5,-108 341.5,-108 335.5,-102 335.5,-96 335.5,-96 335.5,-84 335.5,-84 335.5,-78 341.5,-72 347.5,-72 347.5,-72 407.5,-72 407.5,-72 413.5,-72 419.5,-78 419.5,-84 419.5,-84 419.5,-96 419.5,-96 419.5,-102 413.5,-108 407.5,-108"/>
<text text-anchor="middle" x="377.5" y="-87.5" font-family="sans" font-size="10.00" fill="#000000">plot_heatmap</text>
</g>
<!-- 8&#45;&gt;19 -->
<g id="edge25" class="edge">
<title>8&#45;&gt;19</title>
<path fill="none" stroke="#c0c0c0" stroke-width="2" d="M373.7617,-143.8314C374.2965,-136.131 374.9323,-126.9743 375.5266,-118.4166"/>
<polygon fill="#c0c0c0" stroke="#c0c0c0" stroke-width="2" points="379.02,-118.6317 376.2213,-108.4133 372.0368,-118.1467 379.02,-118.6317"/>
</g>
<!-- 9&#45;&gt;8 -->
<g id="edge14" class="edge">
<title>9&#45;&gt;8</title>
<path fill="none" stroke="#c0c0c0" stroke-width="2" d="M375.4906,-215.8314C375.0628,-208.131 374.5541,-198.9743 374.0787,-190.4166"/>
<polygon fill="#c0c0c0" stroke="#c0c0c0" stroke-width="2" points="377.5724,-190.2037 373.523,-180.4133 370.5831,-190.592 377.5724,-190.2037"/>
</g>
<!-- 10 -->
<g id="node11" class="node">
<title>10</title>
<path fill="none" stroke="#56d873" stroke-width="2" d="M521,-108C521,-108 450,-108 450,-108 444,-108 438,-102 438,-96 438,-96 438,-84 438,-84 438,-78 444,-72 450,-72 450,-72 521,-72 521,-72 527,-72 533,-78 533,-84 533,-84 533,-96 533,-96 533,-102 527,-108 521,-108"/>
<text text-anchor="middle" x="485.5" y="-87.5" font-family="sans" font-size="10.00" fill="#000000">plot_haplotypes</text>
</g>
<!-- 10&#45;&gt;0 -->
<g id="edge4" class="edge">
<title>10&#45;&gt;0</title>
<path fill="none" stroke="#c0c0c0" stroke-width="2" d="M499.1265,-71.8314C505.346,-63.5386 512.8322,-53.557 519.66,-44.4533"/>
<polygon fill="#c0c0c0" stroke="#c0c0c0" stroke-width="2" points="522.49,-46.5133 525.69,-36.4133 516.89,-42.3133 522.49,-46.5133"/>
</g>
<!-- 11 -->
<g id="node12" class="node">
<title>11</title>
<path fill="none" stroke="#5692d8" stroke-width="2" d="M528.5,-180C528.5,-180 452.5,-180 452.5,-180 446.5,-180 440.5,-174 440.5,-168 440.5,-168 440.5,-156 440.5,-156 440.5,-150 446.5,-144 452.5,-144 452.5,-144 528.5,-144 528.5,-144 534.5,-144 540.5,-150 540.5,-156 540.5,-156 540.5,-168 540.5,-168 540.5,-174 534.5,-180 528.5,-180"/>
<text text-anchor="middle" x="490.5" y="-159.5" font-family="sans" font-size="10.00" fill="#000000">build_haplotypes</text>
</g>
<!-- 11&#45;&gt;10 -->
<g id="edge16" class="edge">
<title>11&#45;&gt;10</title>
<path fill="none" stroke="#c0c0c0" stroke-width="2" d="M489.2383,-143.8314C488.7035,-136.131 488.0677,-126.9743 487.4734,-118.4166"/>
<polygon fill="#c0c0c0" stroke="#c0c0c0" stroke-width="2" points="490.9632,-118.1467 486.7787,-108.4133 483.98,-118.6317 490.9632,-118.1467"/>
</g>
<!-- 20 -->
<g id="node21" class="node">
<title>20</title>
<path fill="none" stroke="#afd856" stroke-width="2" d="M623.5,-108C623.5,-108 563.5,-108 563.5,-108 557.5,-108 551.5,-102 551.5,-96 551.5,-96 551.5,-84 551.5,-84 551.5,-78 557.5,-72 563.5,-72 563.5,-72 623.5,-72 623.5,-72 629.5,-72 635.5,-78 635.5,-84 635.5,-84 635.5,-96 635.5,-96 635.5,-102 629.5,-108 623.5,-108"/>
<text text-anchor="middle" x="593.5" y="-87.5" font-family="sans" font-size="10.00" fill="#000000">plot_heatmap</text>
</g>
<!-- 11&#45;&gt;20 -->
<g id="edge26" class="edge">
<title>11&#45;&gt;20</title>
<path fill="none" stroke="#c0c0c0" stroke-width="2" d="M516.4912,-143.8314C529.4216,-134.7927 545.2222,-123.7476 559.1383,-114.0198"/>
<polygon fill="#c0c0c0" stroke="#c0c0c0" stroke-width="2" points="561.3263,-116.7608 567.5171,-108.1628 557.3157,-111.0235 561.3263,-116.7608"/>
</g>
<!-- 12&#45;&gt;11 -->
<g id="edge17" class="edge">
<title>12&#45;&gt;11</title>
<path fill="none" stroke="#c0c0c0" stroke-width="2" d="M485.2664,-215.8314C486.015,-208.131 486.9053,-198.9743 487.7373,-190.4166"/>
<polygon fill="#c0c0c0" stroke="#c0c0c0" stroke-width="2" points="491.2256,-190.7051 488.7098,-180.4133 484.2585,-190.0276 491.2256,-190.7051"/>
</g>
<!-- 13 -->
<g id="node14" class="node">
<title>13</title>
<path fill="none" stroke="#56d873" stroke-width="2" d="M737,-108C737,-108 666,-108 666,-108 660,-108 654,-102 654,-96 654,-96 654,-84 654,-84 654,-78 660,-72 666,-72 666,-72 737,-72 737,-72 743,-72 749,-78 749,-84 749,-84 749,-96 749,-96 749,-102 743,-108 737,-108"/>
<text text-anchor="middle" x="701.5" y="-87.5" font-family="sans" font-size="10.00" fill="#000000">plot_haplotypes</text>
</g>
<!-- 13&#45;&gt;0 -->
<g id="edge5" class="edge">
<title>13&#45;&gt;0</title>
<path fill="none" stroke="#c0c0c0" stroke-width="2" d="M660.6206,-71.8314C634.5226,-60.2323 600.9905,-45.3291 575.8277,-34.1457"/>
<polygon fill="#c0c0c0" stroke="#c0c0c0" stroke-width="2" points="577.1862,-30.9194 566.6266,-30.0563 574.3432,-37.316 577.1862,-30.9194"/>
</g>
<!-- 14 -->
<g id="node15" class="node">
<title>14</title>
<path fill="none" stroke="#5692d8" stroke-width="2" d="M842.5,-180C842.5,-180 766.5,-180 766.5,-180 760.5,-180 754.5,-174 754.5,-168 754.5,-168 754.5,-156 754.5,-156 754.5,-150 760.5,-144 766.5,-144 766.5,-144 842.5,-144 842.5,-144 848.5,-144 854.5,-150 854.5,-156 854.5,-156 854.5,-168 854.5,-168 854.5,-174 848.5,-180 842.5,-180"/>
<text text-anchor="middle" x="804.5" y="-159.5" font-family="sans" font-size="10.00" fill="#000000">build_haplotypes</text>
</g>
<!-- 14&#45;&gt;13 -->
<g id="edge19" class="edge">
<title>14&#45;&gt;13</title>
<path fill="none" stroke="#c0c0c0" stroke-width="2" d="M778.5088,-143.8314C765.5784,-134.7927 749.7778,-123.7476 735.8617,-114.0198"/>
<polygon fill="#c0c0c0" stroke="#c0c0c0" stroke-width="2" points="737.6843,-111.0235 727.4829,-108.1628 733.6737,-116.7608 737.6843,-111.0235"/>
</g>
<!-- 21 -->
<g id="node22" class="node">
<title>21</title>
<path fill="none" stroke="#afd856" stroke-width="2" d="M839.5,-108C839.5,-108 779.5,-108 779.5,-108 773.5,-108 767.5,-102 767.5,-96 767.5,-96 767.5,-84 767.5,-84 767.5,-78 773.5,-72 779.5,-72 779.5,-72 839.5,-72 839.5,-72 845.5,-72 851.5,-78 851.5,-84 851.5,-84 851.5,-96 851.5,-96 851.5,-102 845.5,-108 839.5,-108"/>
<text text-anchor="middle" x="809.5" y="-87.5" font-family="sans" font-size="10.00" fill="#000000">plot_heatmap</text>
</g>
<!-- 14&#45;&gt;21 -->
<g id="edge27" class="edge">
<title>14&#45;&gt;21</title>
<path fill="none" stroke="#c0c0c0" stroke-width="2" d="M805.7617,-143.8314C806.2965,-136.131 806.9323,-126.9743 807.5266,-118.4166"/>
<polygon fill="#c0c0c0" stroke="#c0c0c0" stroke-width="2" points="811.02,-118.6317 808.2213,-108.4133 804.0368,-118.1467 811.02,-118.6317"/>
</g>
<!-- 15&#45;&gt;14 -->
<g id="edge20" class="edge">
<title>15&#45;&gt;14</title>
<path fill="none" stroke="#c0c0c0" stroke-width="2" d="M807.4906,-215.8314C807.0628,-208.131 806.5541,-198.9743 806.0787,-190.4166"/>
<polygon fill="#c0c0c0" stroke="#c0c0c0" stroke-width="2" points="809.5724,-190.2037 805.523,-180.4133 802.5831,-190.592 809.5724,-190.2037"/>
</g>
<!-- 16 -->
<g id="node17" class="node">
<title>16</title>
<path fill="none" stroke="#56d873" stroke-width="2" d="M953,-108C953,-108 882,-108 882,-108 876,-108 870,-102 870,-96 870,-96 870,-84 870,-84 870,-78 876,-72 882,-72 882,-72 953,-72 953,-72 959,-72 965,-78 965,-84 965,-84 965,-96 965,-96 965,-102 959,-108 953,-108"/>
<text text-anchor="middle" x="917.5" y="-87.5" font-family="sans" font-size="10.00" fill="#000000">plot_haplotypes</text>
</g>
<!-- 16&#45;&gt;0 -->
<g id="edge6" class="edge">
<title>16&#45;&gt;0</title>
<path fill="none" stroke="#c0c0c0" stroke-width="2" d="M869.7417,-74.3875C866.6269,-73.5339 863.5268,-72.7287 860.5,-72 759.1719,-47.6034 637.2416,-30.3322 576.9827,-22.5818"/>
<polygon fill="#c0c0c0" stroke="#c0c0c0" stroke-width="2" points="577.175,-19.0781 566.8134,-21.2892 576.2923,-26.0222 577.175,-19.0781"/>
</g>
<!-- 17 -->
<g id="node18" class="node">
<title>17</title>
<path fill="none" stroke="#5692d8" stroke-width="2" d="M960.5,-180C960.5,-180 884.5,-180 884.5,-180 878.5,-180 872.5,-174 872.5,-168 872.5,-168 872.5,-156 872.5,-156 872.5,-150 878.5,-144 884.5,-144 884.5,-144 960.5,-144 960.5,-144 966.5,-144 972.5,-150 972.5,-156 972.5,-156 972.5,-168 972.5,-168 972.5,-174 966.5,-180 960.5,-180"/>
<text text-anchor="middle" x="922.5" y="-159.5" font-family="sans" font-size="10.00" fill="#000000">build_haplotypes</text>
</g>
<!-- 17&#45;&gt;16 -->
<g id="edge22" class="edge">
<title>17&#45;&gt;16</title>
<path fill="none" stroke="#c0c0c0" stroke-width="2" d="M921.2383,-143.8314C920.7035,-136.131 920.0677,-126.9743 919.4734,-118.4166"/>
<polygon fill="#c0c0c0" stroke="#c0c0c0" stroke-width="2" points="922.9632,-118.1467 918.7787,-108.4133 915.98,-118.6317 922.9632,-118.1467"/>
</g>
<!-- 22 -->
<g id="node23" class="node">
<title>22</title>
<path fill="none" stroke="#afd856" stroke-width="2" d="M1055.5,-108C1055.5,-108 995.5,-108 995.5,-108 989.5,-108 983.5,-102 983.5,-96 983.5,-96 983.5,-84 983.5,-84 983.5,-78 989.5,-72 995.5,-72 995.5,-72 1055.5,-72 1055.5,-72 1061.5,-72 1067.5,-78 1067.5,-84 1067.5,-84 1067.5,-96 1067.5,-96 1067.5,-102 1061.5,-108 1055.5,-108"/>
<text text-anchor="middle" x="1025.5" y="-87.5" font-family="sans" font-size="10.00" fill="#000000">plot_heatmap</text>
</g>
<!-- 17&#45;&gt;22 -->
<g id="edge28" class="edge">
<title>17&#45;&gt;22</title>
<path fill="none" stroke="#c0c0c0" stroke-width="2" d="M948.4912,-143.8314C961.4216,-134.7927 977.2222,-123.7476 991.1383,-114.0198"/>
<polygon fill="#c0c0c0" stroke="#c0c0c0" stroke-width="2" points="993.3263,-116.7608 999.5171,-108.1628 989.3157,-111.0235 993.3263,-116.7608"/>
</g>
<!-- 18&#45;&gt;17 -->
<g id="edge23" class="edge">
<title>18&#45;&gt;17</title>
<path fill="none" stroke="#c0c0c0" stroke-width="2" d="M919.5094,-215.8314C919.9372,-208.131 920.4459,-198.9743 920.9213,-190.4166"/>
<polygon fill="#c0c0c0" stroke="#c0c0c0" stroke-width="2" points="924.4169,-190.592 921.477,-180.4133 917.4276,-190.2037 924.4169,-190.592"/>
</g>
<!-- 19&#45;&gt;0 -->
<g id="edge7" class="edge">
<title>19&#45;&gt;0</title>
<path fill="none" stroke="#c0c0c0" stroke-width="2" d="M418.3794,-71.8314C444.4774,-60.2323 478.0095,-45.3291 503.1723,-34.1457"/>
<polygon fill="#c0c0c0" stroke="#c0c0c0" stroke-width="2" points="504.6568,-37.316 512.3734,-30.0563 501.8138,-30.9194 504.6568,-37.316"/>
</g>
<!-- 20&#45;&gt;0 -->
<g id="edge8" class="edge">
<title>20&#45;&gt;0</title>
<path fill="none" stroke="#c0c0c0" stroke-width="2" d="M579.8735,-71.8314C573.654,-63.5386 566.1678,-53.557 559.34,-44.4533"/>
<polygon fill="#c0c0c0" stroke="#c0c0c0" stroke-width="2" points="562.11,-42.3133 553.31,-36.4133 556.51,-46.5133 562.11,-42.3133"/>
</g>
<!-- 21&#45;&gt;0 -->
<g id="edge9" class="edge">
<title>21&#45;&gt;0</title>
<path fill="none" stroke="#c0c0c0" stroke-width="2" d="M767.3035,-74.7503C764.3346,-73.7874 761.3787,-72.8607 758.5,-72 695.2841,-53.0996 620.4133,-35.6863 576.614,-25.9901"/>
<polygon fill="#c0c0c0" stroke="#c0c0c0" stroke-width="2" points="577.2195,-22.5397 566.7011,-23.8101 575.716,-29.3763 577.2195,-22.5397"/>
</g>
<!-- 22&#45;&gt;0 -->
<g id="edge10" class="edge">
<title>22&#45;&gt;0</title>
<path fill="none" stroke="#c0c0c0" stroke-width="2" d="M983.4087,-74.3562C980.4148,-73.4871 977.4245,-72.6891 974.5,-72 829.6502,-37.8705 652.2697,-24.3731 576.5781,-19.9018"/>
<polygon fill="#c0c0c0" stroke="#c0c0c0" stroke-width="2" points="576.7703,-16.4072 566.5865,-19.3296 576.37,-23.3957 576.7703,-16.4072"/>
</g>
</g>
</svg>
